<svg width="460" height="463" viewBox="0 0 460 463" fill="none" xmlns="http://www.w3.org/2000/svg">
<path d="M459.914 231.757C459.237 363.633 351.553 466.462 223.574 462.901C100.842 459.551 -1.6296 358.253 0.0196343 228.341C1.70252 98.4794 108.336 -2.91507 235.394 0.0639943C357.353 2.94207 459.447 102.704 459.914 231.757ZM102.642 226.147C112.179 236.476 114.484 247.584 109.099 259.859C107.775 262.895 109.2 263.994 111.062 265.576C129.081 280.888 149.082 293.699 170.524 303.665C210.768 322.498 253.233 329.753 297.47 327.351C305.004 326.93 311.376 326.672 313.177 316.445C314.092 311.323 320.229 307.081 324.161 302.576C325.148 301.454 326.73 300.826 328.121 299.911C313.396 236.7 281.242 184.839 230.794 144.433C215.816 154.683 203.649 154.055 189.345 141.943C154.394 163.026 124.735 191.835 102.642 226.158V226.147ZM324.609 352.71C320.784 348.087 317.513 343.913 313.951 339.98C313.429 339.47 312.809 339.071 312.128 338.809C311.448 338.547 310.72 338.426 309.991 338.454C283.953 341.411 257.622 340.551 231.832 335.901C183.477 327.289 140.726 306.728 103.371 274.962C100.292 272.359 98.1712 272.056 94.5081 273.554C90.7115 275.087 86.6266 275.774 82.5371 275.568C78.2347 275.299 76.7596 276.904 75.4132 280.617C67.565 302.551 62.4482 325.368 60.1772 348.552C60.0051 350.99 60.6524 353.415 62.0173 355.442C74.7895 373.272 90.4034 388.884 108.235 401.654C152.285 433.008 201.209 445.699 255.006 439.73C266.135 438.514 274.953 435.572 282.285 425.954C299.748 402.995 314.596 378.775 324.609 352.71ZM364.343 313.365C386.142 305.83 406.325 295.215 425.538 282.637C431.473 278.755 434.658 274.222 435.109 267.242C435.467 261.733 436.628 256.263 437.133 250.748C441.443 204.452 431.203 161.477 407.296 121.712C406.385 120.001 404.941 118.635 403.184 117.818C379.929 109.943 355.602 105.687 331.055 105.201C329.933 105.201 328.183 105.487 327.74 106.278C325.328 110.418 323.134 114.693 321.143 119.053C320.762 119.894 321.401 121.403 321.94 122.419C350.184 175.627 360.208 232.234 352.652 291.849C351.872 297.987 351.67 302.694 358.032 305.999C360.528 307.261 361.992 310.504 364.343 313.365ZM83.418 89.4244C80.2485 90.5019 76.0525 90.6644 74.0724 92.8414C57.6719 110.908 44.8323 131.911 36.2298 154.745C35.4297 156.839 35.3585 159.142 36.0278 161.281C44.2174 182.14 55.1964 201.792 68.6647 219.701C69.4951 220.778 72.1145 221.076 73.8367 220.946C77.8925 220.66 82.0603 218.977 85.9255 219.561C90.6038 220.262 92.9656 218.938 95.4617 215.145C116.715 183.068 144.49 155.831 176.976 135.21C181.43 132.371 185.654 130.206 183.146 123.832C182.807 122.61 182.892 121.309 183.387 120.141C184.879 116.326 183.017 114.755 179.792 113.279C149.236 99.3659 117.261 91.8257 83.418 89.4244ZM278.51 80.6333C259.479 58.3129 236.967 39.2143 211.845 24.076C210.291 23.275 208.53 22.9677 206.796 23.1952C171.375 26.9569 137.571 39.9898 108.79 60.9806C101.823 66.0299 95.3271 71.6738 88.5958 77.0484C123.722 79.9885 158.028 89.2523 189.861 104.393C204.104 91.2983 219.378 91.579 232.746 104.511C233.5 105.099 234.369 105.521 235.298 105.749C236.226 105.977 237.191 106.006 238.132 105.835C246.462 103.821 254.624 101.032 262.999 99.2648C268.575 98.0812 272.945 96.9313 273.708 90.0305C274.095 86.9057 276.692 84.0443 278.498 80.5996L278.51 80.6333ZM339.874 293.981C340.334 291.12 340.821 288.859 341.079 286.564C343.924 261.064 343.227 235.293 339.01 209.984C334.276 181.887 325.028 154.742 311.623 129.6C311.104 128.907 310.424 128.349 309.643 127.975C308.862 127.6 308.002 127.421 307.136 127.451C292.141 129.914 282.375 125.426 274.6 112.528C274.006 111.831 273.254 111.287 272.407 110.94C271.56 110.594 270.642 110.455 269.731 110.536C262.736 111.944 255.869 113.992 248.902 115.551C242.973 116.887 237.902 118.609 239.366 126.424C239.5 127.868 239.204 129.318 238.513 130.593C237.156 133.488 238.513 134.902 240.667 136.719C278.91 167.344 308.387 207.528 326.113 253.206C331.24 266.278 335.117 279.849 339.829 293.987L339.874 293.981ZM233.189 22.1573C233.655 22.9764 233.75 23.3747 234.008 23.5486C253.554 37.2221 271.349 53.2435 286.991 71.2529C287.973 72.3751 290.716 72.7509 292.377 72.3751C306.995 69.1433 319.634 75.18 325.805 88.9757C327.167 92.0109 328.89 92.5606 331.863 92.774C342.566 93.5481 353.275 94.3785 363.9 95.8315C373.374 97.122 382.726 99.2648 392.306 101.066C356.742 52.9745 292.843 21.6019 233.189 22.1573ZM48.6326 334.998C49.3957 333.921 49.7096 333.685 49.7547 333.371C52.8724 312.493 58.163 291.997 65.5403 272.219C65.6728 271.593 65.6623 270.946 65.5087 270.324C65.3551 269.704 65.063 269.126 64.6539 268.634C53.5693 256.79 52.9747 243.999 60.3511 231.314C49.5977 213.227 39.1412 195.712 28.3763 177.703C15.132 232.683 21.3755 284.825 48.6326 334.998ZM427.142 297.089C408.895 308.144 389.636 317.435 369.627 324.838C368.923 325.251 368.323 325.82 367.872 326.501C367.421 327.181 367.131 327.956 367.024 328.765C365.947 340.227 360.035 348.143 349.797 352.76C347.194 353.933 346.459 355.218 346.397 357.911C346.19 367.599 345.836 377.288 345.32 386.921C344.911 393.469 343.996 399.982 343.166 407.679C384.083 379.869 412.075 343.514 427.142 297.089ZM296.057 430.988C305.425 426.787 314.939 422.321 324.638 418.266C328.301 416.734 329.754 414.26 330.247 410.653C331.24 403.202 332.576 395.786 333.293 388.301C334.062 380.447 334.286 372.593 334.707 365.445L296.057 430.988Z" fill="white"/>
</svg>
