<svg width="1440" height="1024" viewBox="0 0 1440 1024" fill="none" xmlns="http://www.w3.org/2000/svg">
<path d="M120 161.765C119.853 190.533 96.4388 212.965 68.6122 212.188C41.9262 211.458 19.6457 189.36 20.0043 161.02C20.3702 132.691 43.5557 110.572 71.1822 111.222C97.7 111.85 119.898 133.613 120 161.765ZM42.3176 160.541C44.3912 162.794 44.8925 165.218 43.7216 167.895C43.4337 168.558 43.7435 168.798 44.1484 169.143C48.0664 172.483 52.4152 175.278 57.0774 177.451C65.8276 181.56 75.0609 183.142 84.6795 182.619C86.3176 182.527 87.7031 182.471 88.0947 180.239C88.2935 179.122 89.6279 178.197 90.4829 177.214C90.6976 176.969 91.0415 176.832 91.344 176.633C88.1423 162.843 81.1509 151.53 70.182 142.716C66.9253 144.952 64.2798 144.815 61.1696 142.172C53.5701 146.772 47.1214 153.056 42.3176 160.544V160.541ZM90.5804 188.151C89.7486 187.142 89.0375 186.231 88.263 185.374C88.1495 185.262 88.0146 185.175 87.8666 185.118C87.7186 185.061 87.5605 185.035 87.4019 185.041C81.7404 185.686 76.0152 185.498 70.4077 184.484C59.8937 182.605 50.5983 178.12 42.4762 171.19C41.8067 170.622 41.3455 170.556 40.5491 170.883C39.7236 171.217 38.8354 171.367 37.9462 171.322C37.0107 171.264 36.69 171.614 36.3972 172.424C34.6908 177.209 33.5782 182.186 33.0844 187.244C33.047 187.775 33.1878 188.304 33.4845 188.747C36.2616 192.636 39.6566 196.042 43.5337 198.828C53.1117 205.667 63.7493 208.436 75.4463 207.134C77.8662 206.868 79.7835 206.227 81.3777 204.128C85.1748 199.12 88.4033 193.837 90.5804 188.151ZM99.2197 179.568C103.959 177.924 108.348 175.608 112.526 172.864C113.816 172.017 114.509 171.029 114.606 169.506C114.684 168.304 114.937 167.111 115.047 165.908C115.984 155.809 113.757 146.434 108.559 137.759C108.361 137.386 108.047 137.088 107.665 136.91C102.609 135.192 97.3192 134.263 91.9819 134.157C91.738 134.157 91.3574 134.22 91.2611 134.392C90.7366 135.295 90.2597 136.228 89.8267 137.179C89.7438 137.363 89.8828 137.692 89.9999 137.913C96.1411 149.52 98.3207 161.869 96.6778 174.874C96.5082 176.213 96.4643 177.24 97.8476 177.961C98.3903 178.236 98.7087 178.943 99.2197 179.568ZM38.1377 130.716C37.4486 130.951 36.5362 130.986 36.1057 131.461C32.5397 135.402 29.748 139.984 27.8775 144.965C27.7035 145.422 27.6881 145.924 27.8336 146.391C29.6143 150.941 32.0014 155.228 34.9299 159.135C35.1104 159.37 35.68 159.435 36.0544 159.407C36.9363 159.344 37.8425 158.977 38.6829 159.104C39.7001 159.257 40.2137 158.969 40.7564 158.141C45.3776 151.144 51.4168 145.202 58.4801 140.704C59.4486 140.084 60.367 139.612 59.8218 138.222C59.748 137.955 59.7665 137.671 59.8743 137.416C60.1987 136.584 59.7937 136.241 59.0924 135.92C52.4486 132.884 45.4963 131.239 38.1377 130.716ZM80.5569 128.798C76.419 123.929 71.5243 119.762 66.0619 116.46C65.7239 116.285 65.341 116.218 64.964 116.268C57.2623 117.089 49.9123 119.932 43.6545 124.511C42.1396 125.612 40.7271 126.843 39.2635 128.016C46.9011 128.657 54.3603 130.678 61.2817 133.981C64.3787 131.124 67.6999 131.186 70.6064 134.007C70.7703 134.135 70.9593 134.227 71.1612 134.277C71.3629 134.327 71.573 134.333 71.7774 134.296C73.5887 133.856 75.3633 133.248 77.1843 132.862C78.3967 132.604 79.347 132.353 79.5128 130.848C79.597 130.166 80.1617 129.542 80.5544 128.791L80.5569 128.798ZM93.8993 175.339C93.9994 174.715 94.1054 174.222 94.1615 173.721C94.78 168.158 94.6286 162.536 93.7115 157.015C92.6823 150.886 90.6714 144.964 87.7569 139.48C87.6439 139.329 87.4961 139.207 87.3263 139.125C87.1564 139.044 86.9693 139.005 86.7811 139.011C83.5207 139.548 81.3973 138.569 79.7068 135.756C79.5776 135.604 79.4142 135.485 79.23 135.409C79.0458 135.334 78.8462 135.303 78.648 135.321C77.1271 135.628 75.6341 136.075 74.1193 136.415C72.83 136.707 71.7274 137.082 72.0457 138.787C72.075 139.102 72.0105 139.418 71.8603 139.696C71.5652 140.328 71.8603 140.636 72.3287 141.033C80.644 147.714 87.0531 156.48 90.9074 166.444C92.0221 169.296 92.865 172.256 93.8895 175.34L93.8993 175.339ZM70.7028 116.042C70.8041 116.22 70.8248 116.307 70.8809 116.345C75.1308 119.328 78.9999 122.823 82.401 126.752C82.6145 126.996 83.211 127.078 83.572 126.996C86.7505 126.291 89.4986 127.608 90.8403 130.618C91.1366 131.28 91.5111 131.4 92.1576 131.446C94.4848 131.615 96.8131 131.796 99.1234 132.113C101.183 132.395 103.217 132.862 105.3 133.255C97.567 122.764 83.6733 115.92 70.7028 116.042ZM30.5743 184.287C30.7402 184.052 30.8085 184 30.8182 183.932C31.4961 179.377 32.6465 174.906 34.2505 170.592C34.2794 170.455 34.2771 170.314 34.2437 170.178C34.2103 170.043 34.1468 169.917 34.0578 169.81C31.6477 167.226 31.5184 164.436 33.1222 161.668C30.7841 157.723 28.5105 153.902 26.1699 149.973C23.2902 161.967 24.6477 173.342 30.5743 184.287ZM112.874 176.017C108.907 178.429 104.719 180.456 100.369 182.07C100.216 182.161 100.085 182.285 99.987 182.433C99.8889 182.582 99.8259 182.75 99.8027 182.927C99.5686 185.427 98.283 187.154 96.057 188.162C95.491 188.417 95.3313 188.698 95.3178 189.285C95.2727 191.399 95.1958 193.512 95.0836 195.614C94.9946 197.042 94.7958 198.463 94.6153 200.142C103.512 194.075 109.598 186.145 112.874 176.017ZM84.3721 205.227C86.409 204.31 88.4777 203.336 90.5866 202.451C91.383 202.117 91.6989 201.578 91.8063 200.791C92.0221 199.165 92.3125 197.547 92.4686 195.915C92.6357 194.201 92.6845 192.488 92.776 190.929L84.3721 205.227Z" fill="#E2E2E2"/>
<path d="M70.0645 498.144L20 455.176L70.0645 412.208V498.144ZM120 455.047L79.8711 489.498V468.783L108.129 444.725L120 455.047ZM34.71 455.176L61.29 477.734L61.29 432.337L34.71 455.176ZM100.516 438.401L79.8711 455.821V420.725L100.516 438.401Z" fill="#E2E2E2"/>
<path d="M71.6276 698.294C66.3768 698.857 62.0871 700.123 57.0238 702.631C52.8513 704.717 49.9211 706.757 46.7566 709.781C39.9352 716.297 35.7861 724.173 34.1218 733.691C33.7936 735.66 33.6998 743.583 34.0046 745.692C34.1921 746.935 34.2624 747.052 34.8016 747.052H35.3876L35.1766 745.458C35.0829 744.591 34.9891 741.942 35.0125 739.551C35.0125 736.035 35.1063 734.698 35.5517 732.542C38.013 719.977 46.1471 709.312 57.6098 703.569C71.1822 696.771 87.6379 698.201 99.8508 707.249C102.125 708.937 105.664 712.312 107.399 714.445C114.9 723.681 118.088 736.105 115.885 747.568L115.58 749.162H116.213C116.822 749.162 116.869 749.091 117.15 747.333C117.596 744.661 117.76 740.512 117.596 737.324C117.01 727.432 112.415 717.399 105.148 710.203C100.413 705.538 93.8498 701.67 87.4973 699.818C82.8559 698.482 76.1518 697.826 71.6276 698.294Z" fill="#E2E2E2"/>
<path d="M105.007 750.685C103.929 751.248 102.382 752.701 102.382 753.194C102.382 753.686 103.741 753.334 104.374 752.678C104.726 752.303 105.382 751.834 105.781 751.623C106.789 751.178 109.18 751.178 110.305 751.646C111.313 752.045 112.579 753.217 113.071 754.131C113.329 754.624 113.587 754.788 114.102 754.788H114.806L114.36 753.873C113.657 752.537 112.766 751.576 111.571 750.873C110.657 750.334 110.164 750.217 108.359 750.146C106.437 750.076 106.132 750.123 105.007 750.685Z" fill="#E2E2E2"/>
<path d="M10.0234 750.896V751.482L14.1022 751.553L18.2044 751.623L18.9076 752.303C19.5171 752.889 19.6343 753.17 19.6343 754.131C19.6343 755.303 19.2124 756.241 18.5091 756.593C18.2982 756.686 16.3291 756.827 14.1256 756.897L10.1406 757.015L10.0703 760.578L10 764.164H10.7267H11.4299V761.257V758.374L14.782 758.257C18.8373 758.14 19.7515 757.788 20.572 756.077C21.4862 754.178 20.9939 752.209 19.3061 750.943C18.7201 750.498 18.2747 750.451 14.3366 750.381L10.0234 750.31V750.896Z" fill="#E2E2E2"/>
<path d="M22.6826 750.779C22.6826 751.13 22.9405 751.224 24.4876 751.365C25.4721 751.435 28.0038 751.505 30.1135 751.505H33.9344V750.919V750.333H28.3085C22.9874 750.333 22.6826 750.357 22.6826 750.779Z" fill="#E2E2E2"/>
<path d="M37.2386 754.131C39.5593 758.796 39.5593 758.773 39.9343 757.859C40.2156 757.202 40.1218 756.968 38.481 753.756C36.8166 750.522 36.676 750.334 36.0196 750.334H35.3398L37.2386 754.131Z" fill="#E2E2E2"/>
<path d="M42.7245 756.218C41.0602 759.71 39.6772 762.289 39.349 762.547C39.0208 762.804 38.4114 762.992 37.8957 762.992C37.0752 762.992 36.9814 763.062 36.9814 763.578C36.9814 764.117 37.0518 764.164 38.1066 764.164C39.8647 764.164 40.4742 763.625 41.7869 760.976C44.2013 756.053 46.8267 750.568 46.8267 750.451C46.8267 750.381 46.522 750.334 46.1704 750.334C45.5609 750.334 45.3968 750.615 42.7245 756.218Z" fill="#E2E2E2"/>
<path d="M54.1173 751.436C54.3751 752.045 55.9222 755.139 57.5631 758.351L60.5401 764.164L61.4778 764.141H62.4154L65.3456 758.233L68.2757 752.326L68.346 758.233L68.3929 764.164H68.9789H69.565V757.249V750.334H68.6273H67.6897L64.5955 756.546C62.8843 759.968 61.4309 762.758 61.3606 762.758C61.2903 762.758 59.8369 759.968 58.1257 756.546C55.1252 750.521 55.008 750.334 54.3282 750.334H53.6484L54.1173 751.436Z" fill="#E2E2E2"/>
<path d="M73.5488 757.249V764.164H74.1349H74.7209V758.679C74.7209 755.678 74.7912 752.561 74.8615 751.764L75.0256 750.334H74.2755H73.5488V757.249Z" fill="#E2E2E2"/>
<path d="M80.4888 754.788C77.5118 758.984 77.3008 759.335 77.3008 760.343V761.421L80.6529 756.757L83.9815 752.092L84.0518 758.116L84.0987 764.164H84.8019H85.5052V757.249V750.334H84.591H83.6768L80.4888 754.788Z" fill="#E2E2E2"/>
<path d="M89.4883 750.92V751.506H93.3092C96.6613 751.506 97.2005 751.553 97.8568 751.975C98.7945 752.537 99.193 753.803 98.8413 755.092C98.4428 756.593 97.9037 756.757 93.3561 756.897L89.3711 757.015L89.3008 760.578L89.2305 764.164H89.9571H90.6604V761.257V758.374L94.0125 758.257C97.0129 758.163 97.4583 758.093 98.3725 757.577C99.6383 756.874 100.271 755.772 100.271 754.248C100.271 752.631 99.5446 751.342 98.3256 750.779C97.4818 750.404 96.7551 750.334 93.4264 750.334H89.4883V750.92Z" fill="#E2E2E2"/>
<path d="M119.259 757.061C117.641 760.741 116.305 763.859 116.258 763.953C116.211 764.07 116.492 764.164 116.868 764.164C117.618 764.164 117.266 764.89 122.189 753.662C122.611 752.725 123.033 751.951 123.126 751.951C123.22 751.951 123.665 752.771 124.111 753.779C128.799 764.469 128.658 764.164 129.385 764.164C129.76 764.164 130.041 764.07 129.995 763.953C129.971 763.859 128.612 760.741 126.994 757.061L124.064 750.334H123.126L122.189 750.357L119.259 757.061Z" fill="#E2E2E2"/>
<path d="M27.6035 758.655V764.164H28.3068H29.01V758.655V753.147H28.3068H27.6035V758.655Z" fill="#E2E2E2"/>
<path d="M105.664 757.249V757.835H109.625C111.829 757.835 113.657 757.905 113.727 758.022C113.962 758.398 112.954 760.718 112.204 761.492C110.024 763.742 106.273 763.859 104.281 761.726C103.741 761.164 102.382 760.859 102.382 761.304C102.382 761.796 103.929 763.25 105.007 763.789C105.992 764.281 106.554 764.398 108.008 764.398C109.555 764.398 110.024 764.305 111.243 763.672C113.516 762.547 114.782 760.671 114.993 758.14L115.11 756.663H110.375H105.664V757.249Z" fill="#E2E2E2"/>
<path d="M121.182 760.296L120.9 760.882H123.01C124.182 760.882 125.12 760.789 125.12 760.671C125.12 759.851 124.815 759.71 123.151 759.71C121.557 759.71 121.416 759.757 121.182 760.296Z" fill="#E2E2E2"/>
<path d="M104.726 768.993C96.3107 777.549 84.1448 782.12 72.5649 781.088C65.6966 780.479 59.18 778.252 53.8119 774.736C52.6633 773.986 51.9835 773.681 51.9835 773.869C51.9835 774.056 51.9132 774.361 51.8429 774.548C51.585 775.252 57.6797 778.533 62.1335 780.08C73.4322 783.972 85.9029 782.823 96.3107 776.939C100.061 774.806 104.398 771.384 106.695 768.735L107.797 767.446H107.023C106.367 767.446 105.992 767.704 104.726 768.993Z" fill="#E2E2E2"/>
<path d="M120 1032.91C119.853 1061.68 96.4388 1084.11 68.6122 1083.33C41.9262 1082.6 19.6457 1060.5 20.0043 1032.16C20.3702 1003.83 43.5557 981.716 71.1822 982.366C97.7 982.993 119.898 1004.76 120 1032.91ZM42.3176 1031.68C44.3912 1033.94 44.8925 1036.36 43.7216 1039.04C43.4337 1039.7 43.7435 1039.94 44.1484 1040.29C48.0664 1043.63 52.4152 1046.42 57.0774 1048.6C65.8276 1052.7 75.0609 1054.29 84.6795 1053.76C86.3176 1053.67 87.7031 1053.61 88.0947 1051.38C88.2935 1050.27 89.6279 1049.34 90.4829 1048.36C90.6976 1048.11 91.0415 1047.98 91.344 1047.78C88.1423 1033.99 81.1509 1022.67 70.182 1013.86C66.9253 1016.1 64.2798 1015.96 61.1696 1013.32C53.5701 1017.92 47.1214 1024.2 42.3176 1031.69V1031.68ZM90.5804 1059.29C89.7486 1058.29 89.0375 1057.38 88.263 1056.52C88.1495 1056.41 88.0146 1056.32 87.8666 1056.26C87.7186 1056.2 87.5605 1056.18 87.4019 1056.18C81.7404 1056.83 76.0152 1056.64 70.4077 1055.63C59.8937 1053.75 50.5983 1049.26 42.4762 1042.33C41.8067 1041.77 41.3455 1041.7 40.5491 1042.03C39.7236 1042.36 38.8354 1042.51 37.9462 1042.47C37.0107 1042.41 36.69 1042.76 36.3972 1043.57C34.6908 1048.35 33.5782 1053.33 33.0844 1058.39C33.047 1058.92 33.1878 1059.45 33.4845 1059.89C36.2616 1063.78 39.6566 1067.19 43.5337 1069.97C53.1117 1076.81 63.7493 1079.58 75.4463 1078.28C77.8662 1078.01 79.7835 1077.37 81.3777 1075.27C85.1748 1070.26 88.4033 1064.98 90.5804 1059.29ZM99.2197 1050.71C103.959 1049.07 108.348 1046.75 112.526 1044.01C113.816 1043.16 114.509 1042.17 114.606 1040.65C114.684 1039.45 114.937 1038.25 115.047 1037.05C115.984 1026.95 113.757 1017.58 108.559 1008.9C108.361 1008.53 108.047 1008.23 107.665 1008.05C102.609 1006.34 97.3192 1005.41 91.9819 1005.3C91.738 1005.3 91.3574 1005.36 91.2611 1005.54C90.7366 1006.44 90.2597 1007.37 89.8267 1008.32C89.7438 1008.51 89.8828 1008.84 89.9999 1009.06C96.1411 1020.66 98.3207 1033.01 96.6778 1046.02C96.5082 1047.36 96.4643 1048.38 97.8476 1049.1C98.3903 1049.38 98.7087 1050.09 99.2197 1050.71ZM38.1377 1001.86C37.4486 1002.09 36.5362 1002.13 36.1057 1002.6C32.5397 1006.55 29.748 1011.13 27.8775 1016.11C27.7035 1016.57 27.6881 1017.07 27.8336 1017.53C29.6143 1022.08 32.0014 1026.37 34.9299 1030.28C35.1104 1030.51 35.68 1030.58 36.0544 1030.55C36.9363 1030.49 37.8425 1030.12 38.6829 1030.25C39.7001 1030.4 40.2137 1030.11 40.7564 1029.28C45.3776 1022.29 51.4168 1016.35 58.4801 1011.85C59.4486 1011.23 60.367 1010.76 59.8218 1009.37C59.748 1009.1 59.7665 1008.81 59.8743 1008.56C60.1987 1007.73 59.7937 1007.39 59.0924 1007.06C52.4486 1004.03 45.4963 1002.38 38.1377 1001.86ZM80.5569 999.941C76.419 995.072 71.5243 990.906 66.0619 987.604C65.7239 987.429 65.341 987.362 64.964 987.412C57.2623 988.232 49.9123 991.075 43.6545 995.654C42.1396 996.756 40.7271 997.987 39.2635 999.159C46.9011 999.801 54.3603 1001.82 61.2817 1005.12C64.3787 1002.27 67.6999 1002.33 70.6064 1005.15C70.7703 1005.28 70.9593 1005.37 71.1612 1005.42C71.3629 1005.47 71.573 1005.48 71.7774 1005.44C73.5887 1005 75.3633 1004.39 77.1843 1004.01C78.3967 1003.75 79.347 1003.5 79.5128 1001.99C79.597 1001.31 80.1617 1000.69 80.5544 999.934L80.5569 999.941ZM93.8993 1046.48C93.9994 1045.86 94.1054 1045.37 94.1615 1044.86C94.78 1039.3 94.6286 1033.68 93.7115 1028.16C92.6823 1022.03 90.6714 1016.11 87.7569 1010.62C87.6439 1010.47 87.4961 1010.35 87.3263 1010.27C87.1564 1010.19 86.9693 1010.15 86.7811 1010.15C83.5207 1010.69 81.3973 1009.71 79.7068 1006.9C79.5776 1006.75 79.4142 1006.63 79.23 1006.55C79.0458 1006.48 78.8462 1006.45 78.648 1006.46C77.1271 1006.77 75.6341 1007.22 74.1193 1007.56C72.83 1007.85 71.7274 1008.23 72.0457 1009.93C72.075 1010.25 72.0105 1010.56 71.8603 1010.84C71.5652 1011.47 71.8603 1011.78 72.3287 1012.18C80.644 1018.86 87.0531 1027.62 90.9074 1037.59C92.0221 1040.44 92.865 1043.4 93.8895 1046.48L93.8993 1046.48ZM70.7028 987.185C70.8041 987.364 70.8248 987.451 70.8809 987.489C75.1308 990.471 78.9999 993.966 82.401 997.895C82.6145 998.14 83.211 998.222 83.572 998.14C86.7505 997.435 89.4986 998.752 90.8403 1001.76C91.1366 1002.42 91.5111 1002.54 92.1576 1002.59C94.4848 1002.76 96.8131 1002.94 99.1234 1003.26C101.183 1003.54 103.217 1004.01 105.3 1004.4C97.567 993.908 83.6733 987.064 70.7028 987.185ZM30.5743 1055.43C30.7402 1055.2 30.8085 1055.14 30.8182 1055.08C31.4961 1050.52 32.6465 1046.05 34.2505 1041.74C34.2794 1041.6 34.2771 1041.46 34.2437 1041.32C34.2103 1041.19 34.1468 1041.06 34.0578 1040.95C31.6477 1038.37 31.5184 1035.58 33.1222 1032.81C30.7841 1028.87 28.5105 1025.05 26.1699 1021.12C23.2902 1033.11 24.6477 1044.49 30.5743 1055.43ZM112.874 1047.16C108.907 1049.57 104.719 1051.6 100.369 1053.21C100.216 1053.3 100.085 1053.43 99.987 1053.58C99.8889 1053.73 99.8259 1053.89 99.8027 1054.07C99.5686 1056.57 98.283 1058.3 96.057 1059.31C95.491 1059.56 95.3313 1059.84 95.3178 1060.43C95.2727 1062.54 95.1958 1064.66 95.0836 1066.76C94.9946 1068.19 94.7958 1069.61 94.6153 1071.29C103.512 1065.22 109.598 1057.29 112.874 1047.16ZM84.3721 1076.37C86.409 1075.45 88.4777 1074.48 90.5866 1073.59C91.383 1073.26 91.6989 1072.72 91.8063 1071.93C92.0221 1070.31 92.3125 1068.69 92.4686 1067.06C92.6357 1065.34 92.6845 1063.63 92.776 1062.07L84.3721 1076.37Z" fill="#E2E2E2"/>
<path d="M640 161.765C639.853 190.533 616.439 212.965 588.612 212.188C561.926 211.458 539.646 189.36 540.004 161.02C540.37 132.691 563.556 110.572 591.182 111.222C617.7 111.85 639.898 133.613 640 161.765ZM562.318 160.541C564.391 162.794 564.893 165.218 563.722 167.895C563.434 168.558 563.744 168.798 564.148 169.143C568.066 172.483 572.415 175.278 577.077 177.451C585.828 181.56 595.061 183.142 604.68 182.619C606.318 182.527 607.703 182.471 608.095 180.239C608.294 179.122 609.628 178.197 610.483 177.214C610.698 176.969 611.042 176.832 611.344 176.633C608.142 162.843 601.151 151.53 590.182 142.716C586.925 144.952 584.28 144.815 581.17 142.172C573.57 146.772 567.121 153.056 562.318 160.544V160.541ZM610.58 188.151C609.749 187.142 609.038 186.231 608.263 185.374C608.15 185.262 608.015 185.175 607.867 185.118C607.719 185.061 607.56 185.035 607.402 185.041C601.74 185.686 596.015 185.498 590.408 184.484C579.894 182.605 570.598 178.12 562.476 171.19C561.807 170.622 561.346 170.556 560.549 170.883C559.724 171.217 558.835 171.367 557.946 171.322C557.011 171.264 556.69 171.614 556.397 172.424C554.691 177.209 553.578 182.186 553.084 187.244C553.047 187.775 553.188 188.304 553.485 188.747C556.262 192.636 559.657 196.042 563.534 198.828C573.112 205.667 583.749 208.436 595.446 207.134C597.866 206.868 599.784 206.227 601.378 204.128C605.175 199.12 608.403 193.837 610.58 188.151ZM619.22 179.568C623.959 177.924 628.348 175.608 632.526 172.864C633.816 172.017 634.509 171.029 634.606 169.506C634.684 168.304 634.937 167.111 635.047 165.908C635.984 155.809 633.757 146.434 628.559 137.759C628.361 137.386 628.047 137.088 627.665 136.91C622.609 135.192 617.319 134.263 611.982 134.157C611.738 134.157 611.357 134.22 611.261 134.392C610.737 135.295 610.26 136.228 609.827 137.179C609.744 137.363 609.883 137.692 610 137.913C616.141 149.52 618.321 161.869 616.678 174.874C616.508 176.213 616.464 177.24 617.848 177.961C618.39 178.236 618.709 178.943 619.22 179.568ZM558.138 130.716C557.449 130.951 556.536 130.986 556.106 131.461C552.54 135.402 549.748 139.984 547.878 144.965C547.704 145.422 547.688 145.924 547.834 146.391C549.614 150.941 552.001 155.228 554.93 159.135C555.11 159.37 555.68 159.435 556.054 159.407C556.936 159.344 557.843 158.977 558.683 159.104C559.7 159.257 560.214 158.969 560.756 158.141C565.378 151.144 571.417 145.202 578.48 140.704C579.449 140.084 580.367 139.612 579.822 138.222C579.748 137.955 579.767 137.671 579.874 137.416C580.199 136.584 579.794 136.241 579.092 135.92C572.449 132.884 565.496 131.239 558.138 130.716ZM600.557 128.798C596.419 123.929 591.524 119.762 586.062 116.46C585.724 116.285 585.341 116.218 584.964 116.268C577.262 117.089 569.912 119.932 563.654 124.511C562.14 125.612 560.727 126.843 559.264 128.016C566.901 128.657 574.36 130.678 581.282 133.981C584.379 131.124 587.7 131.186 590.606 134.007C590.77 134.135 590.959 134.227 591.161 134.277C591.363 134.327 591.573 134.333 591.777 134.296C593.589 133.856 595.363 133.248 597.184 132.862C598.397 132.604 599.347 132.353 599.513 130.848C599.597 130.166 600.162 129.542 600.554 128.791L600.557 128.798ZM613.899 175.339C613.999 174.715 614.105 174.222 614.162 173.721C614.78 168.158 614.629 162.536 613.711 157.015C612.682 150.886 610.671 144.964 607.757 139.48C607.644 139.329 607.496 139.207 607.326 139.125C607.156 139.044 606.969 139.005 606.781 139.011C603.521 139.548 601.397 138.569 599.707 135.756C599.578 135.604 599.414 135.485 599.23 135.409C599.046 135.334 598.846 135.303 598.648 135.321C597.127 135.628 595.634 136.075 594.119 136.415C592.83 136.707 591.727 137.082 592.046 138.787C592.075 139.102 592.01 139.418 591.86 139.696C591.565 140.328 591.86 140.636 592.329 141.033C600.644 147.714 607.053 156.48 610.907 166.444C612.022 169.296 612.865 172.256 613.89 175.34L613.899 175.339ZM590.703 116.042C590.804 116.22 590.825 116.307 590.881 116.345C595.131 119.328 599 122.823 602.401 126.752C602.615 126.996 603.211 127.078 603.572 126.996C606.751 126.291 609.499 127.608 610.84 130.618C611.137 131.28 611.511 131.4 612.158 131.446C614.485 131.615 616.813 131.796 619.123 132.113C621.183 132.395 623.217 132.862 625.3 133.255C617.567 122.764 603.673 115.92 590.703 116.042ZM550.574 184.287C550.74 184.052 550.808 184 550.818 183.932C551.496 179.377 552.646 174.906 554.251 170.592C554.279 170.455 554.277 170.314 554.244 170.178C554.21 170.043 554.147 169.917 554.058 169.81C551.648 167.226 551.518 164.436 553.122 161.668C550.784 157.723 548.511 153.902 546.17 149.973C543.29 161.967 544.648 173.342 550.574 184.287ZM632.874 176.017C628.907 178.429 624.719 180.456 620.369 182.07C620.216 182.161 620.085 182.285 619.987 182.433C619.889 182.582 619.826 182.75 619.803 182.927C619.569 185.427 618.283 187.154 616.057 188.162C615.491 188.417 615.331 188.698 615.318 189.285C615.273 191.399 615.196 193.512 615.084 195.614C614.995 197.042 614.796 198.463 614.615 200.142C623.512 194.075 629.598 186.145 632.874 176.017ZM604.372 205.227C606.409 204.31 608.478 203.336 610.587 202.451C611.383 202.117 611.699 201.578 611.806 200.791C612.022 199.165 612.312 197.547 612.469 195.915C612.636 194.201 612.684 192.488 612.776 190.929L604.372 205.227Z" fill="#E2E2E2"/>
<path d="M590.064 498.144L540 455.176L590.064 412.208V498.144ZM640 455.047L599.871 489.498V468.783L628.129 444.725L640 455.047ZM554.71 455.176L581.29 477.734V432.337L554.71 455.176ZM620.516 438.401L599.871 455.821V420.725L620.516 438.401Z" fill="#E2E2E2"/>
<path d="M591.628 698.294C586.377 698.857 582.087 700.123 577.024 702.631C572.851 704.717 569.921 706.757 566.757 709.781C559.935 716.297 555.786 724.173 554.122 733.691C553.794 735.66 553.7 743.583 554.005 745.692C554.192 746.935 554.262 747.052 554.802 747.052H555.388L555.177 745.458C555.083 744.591 554.989 741.942 555.013 739.551C555.013 736.035 555.106 734.698 555.552 732.542C558.013 719.977 566.147 709.312 577.61 703.569C591.182 696.771 607.638 698.201 619.851 707.249C622.125 708.937 625.664 712.312 627.399 714.445C634.9 723.681 638.088 736.105 635.885 747.568L635.58 749.162H636.213C636.822 749.162 636.869 749.091 637.15 747.333C637.596 744.661 637.76 740.512 637.596 737.324C637.01 727.432 632.415 717.399 625.148 710.203C620.413 705.538 613.85 701.67 607.497 699.818C602.856 698.482 596.152 697.826 591.628 698.294Z" fill="#E2E2E2"/>
<path d="M625.007 750.685C623.929 751.248 622.382 752.701 622.382 753.194C622.382 753.686 623.741 753.334 624.374 752.678C624.726 752.303 625.382 751.834 625.781 751.623C626.789 751.178 629.18 751.178 630.305 751.646C631.313 752.045 632.579 753.217 633.071 754.131C633.329 754.624 633.587 754.788 634.102 754.788H634.806L634.36 753.873C633.657 752.537 632.766 751.576 631.571 750.873C630.657 750.334 630.164 750.217 628.359 750.146C626.437 750.076 626.132 750.123 625.007 750.685Z" fill="#E2E2E2"/>
<path d="M530.023 750.896V751.482L534.102 751.553L538.204 751.623L538.908 752.303C539.517 752.889 539.634 753.17 539.634 754.131C539.634 755.303 539.212 756.241 538.509 756.593C538.298 756.686 536.329 756.827 534.126 756.897L530.141 757.015L530.07 760.578L530 764.164H530.727H531.43V761.257V758.374L534.782 758.257C538.837 758.14 539.752 757.788 540.572 756.077C541.486 754.178 540.994 752.209 539.306 750.943C538.72 750.498 538.275 750.451 534.337 750.381L530.023 750.31V750.896Z" fill="#E2E2E2"/>
<path d="M542.683 750.779C542.683 751.13 542.94 751.224 544.488 751.365C545.472 751.435 548.004 751.505 550.113 751.505H553.934V750.919V750.333H548.308C542.987 750.333 542.683 750.357 542.683 750.779Z" fill="#E2E2E2"/>
<path d="M557.239 754.131C559.559 758.796 559.559 758.773 559.934 757.859C560.216 757.202 560.122 756.968 558.481 753.756C556.817 750.522 556.676 750.334 556.02 750.334H555.34L557.239 754.131Z" fill="#E2E2E2"/>
<path d="M562.725 756.218C561.06 759.71 559.677 762.289 559.349 762.547C559.021 762.804 558.411 762.992 557.896 762.992C557.075 762.992 556.981 763.062 556.981 763.578C556.981 764.117 557.052 764.164 558.107 764.164C559.865 764.164 560.474 763.625 561.787 760.976C564.201 756.053 566.827 750.568 566.827 750.451C566.827 750.381 566.522 750.334 566.17 750.334C565.561 750.334 565.397 750.615 562.725 756.218Z" fill="#E2E2E2"/>
<path d="M574.117 751.436C574.375 752.045 575.922 755.139 577.563 758.351L580.54 764.164L581.478 764.141H582.415L585.346 758.233L588.276 752.326L588.346 758.233L588.393 764.164H588.979H589.565V757.249V750.334H588.627H587.69L584.595 756.546C582.884 759.968 581.431 762.758 581.361 762.758C581.29 762.758 579.837 759.968 578.126 756.546C575.125 750.521 575.008 750.334 574.328 750.334H573.648L574.117 751.436Z" fill="#E2E2E2"/>
<path d="M593.549 757.249V764.164H594.135H594.721V758.679C594.721 755.678 594.791 752.561 594.862 751.764L595.026 750.334H594.276H593.549V757.249Z" fill="#E2E2E2"/>
<path d="M600.489 754.788C597.512 758.984 597.301 759.335 597.301 760.343V761.421L600.653 756.757L603.982 752.092L604.052 758.116L604.099 764.164H604.802H605.505V757.249V750.334H604.591H603.677L600.489 754.788Z" fill="#E2E2E2"/>
<path d="M609.488 750.92V751.506H613.309C616.661 751.506 617.2 751.553 617.857 751.975C618.794 752.537 619.193 753.803 618.841 755.092C618.443 756.593 617.904 756.757 613.356 756.897L609.371 757.015L609.301 760.578L609.23 764.164H609.957H610.66V761.257V758.374L614.012 758.257C617.013 758.163 617.458 758.093 618.373 757.577C619.638 756.874 620.271 755.772 620.271 754.248C620.271 752.631 619.545 751.342 618.326 750.779C617.482 750.404 616.755 750.334 613.426 750.334H609.488V750.92Z" fill="#E2E2E2"/>
<path d="M639.259 757.061C637.641 760.741 636.305 763.859 636.258 763.953C636.211 764.07 636.492 764.164 636.868 764.164C637.618 764.164 637.266 764.89 642.189 753.662C642.611 752.725 643.033 751.951 643.126 751.951C643.22 751.951 643.665 752.771 644.111 753.779C648.799 764.469 648.658 764.164 649.385 764.164C649.76 764.164 650.041 764.07 649.995 763.953C649.971 763.859 648.612 760.741 646.994 757.061L644.064 750.334H643.126L642.189 750.357L639.259 757.061Z" fill="#E2E2E2"/>
<path d="M547.604 758.655V764.164H548.307H549.01V758.655V753.147H548.307H547.604V758.655Z" fill="#E2E2E2"/>
<path d="M625.664 757.249V757.835H629.625C631.829 757.835 633.657 757.905 633.727 758.022C633.962 758.398 632.954 760.718 632.204 761.492C630.024 763.742 626.273 763.859 624.281 761.726C623.741 761.164 622.382 760.859 622.382 761.304C622.382 761.796 623.929 763.25 625.007 763.789C625.992 764.281 626.554 764.398 628.008 764.398C629.555 764.398 630.024 764.305 631.243 763.672C633.516 762.547 634.782 760.671 634.993 758.14L635.11 756.663H630.375H625.664V757.249Z" fill="#E2E2E2"/>
<path d="M641.182 760.296L640.9 760.882H643.01C644.182 760.882 645.12 760.789 645.12 760.671C645.12 759.851 644.815 759.71 643.151 759.71C641.557 759.71 641.416 759.757 641.182 760.296Z" fill="#E2E2E2"/>
<path d="M624.726 768.993C616.311 777.549 604.145 782.12 592.565 781.088C585.697 780.479 579.18 778.252 573.812 774.736C572.663 773.986 571.984 773.681 571.984 773.869C571.984 774.056 571.913 774.361 571.843 774.548C571.585 775.252 577.68 778.533 582.134 780.08C593.432 783.972 605.903 782.823 616.311 776.939C620.061 774.806 624.398 771.384 626.695 768.735L627.797 767.446H627.023C626.367 767.446 625.992 767.704 624.726 768.993Z" fill="#E2E2E2"/>
<path d="M640 1032.91C639.853 1061.68 616.439 1084.11 588.612 1083.33C561.926 1082.6 539.646 1060.5 540.004 1032.16C540.37 1003.83 563.556 981.716 591.182 982.366C617.7 982.993 639.898 1004.76 640 1032.91ZM562.318 1031.68C564.391 1033.94 564.893 1036.36 563.722 1039.04C563.434 1039.7 563.744 1039.94 564.148 1040.29C568.066 1043.63 572.415 1046.42 577.077 1048.6C585.828 1052.7 595.061 1054.29 604.68 1053.76C606.318 1053.67 607.703 1053.61 608.095 1051.38C608.294 1050.27 609.628 1049.34 610.483 1048.36C610.698 1048.11 611.042 1047.98 611.344 1047.78C608.142 1033.99 601.151 1022.67 590.182 1013.86C586.925 1016.1 584.28 1015.96 581.17 1013.32C573.57 1017.92 567.121 1024.2 562.318 1031.69V1031.68ZM610.58 1059.29C609.749 1058.29 609.038 1057.38 608.263 1056.52C608.15 1056.41 608.015 1056.32 607.867 1056.26C607.719 1056.2 607.56 1056.18 607.402 1056.18C601.74 1056.83 596.015 1056.64 590.408 1055.63C579.894 1053.75 570.598 1049.26 562.476 1042.33C561.807 1041.77 561.346 1041.7 560.549 1042.03C559.724 1042.36 558.835 1042.51 557.946 1042.47C557.011 1042.41 556.69 1042.76 556.397 1043.57C554.691 1048.35 553.578 1053.33 553.084 1058.39C553.047 1058.92 553.188 1059.45 553.485 1059.89C556.262 1063.78 559.657 1067.19 563.534 1069.97C573.112 1076.81 583.749 1079.58 595.446 1078.28C597.866 1078.01 599.784 1077.37 601.378 1075.27C605.175 1070.26 608.403 1064.98 610.58 1059.29ZM619.22 1050.71C623.959 1049.07 628.348 1046.75 632.526 1044.01C633.816 1043.16 634.509 1042.17 634.606 1040.65C634.684 1039.45 634.937 1038.25 635.047 1037.05C635.984 1026.95 633.757 1017.58 628.559 1008.9C628.361 1008.53 628.047 1008.23 627.665 1008.05C622.609 1006.34 617.319 1005.41 611.982 1005.3C611.738 1005.3 611.357 1005.36 611.261 1005.54C610.737 1006.44 610.26 1007.37 609.827 1008.32C609.744 1008.51 609.883 1008.84 610 1009.06C616.141 1020.66 618.321 1033.01 616.678 1046.02C616.508 1047.36 616.464 1048.38 617.848 1049.1C618.39 1049.38 618.709 1050.09 619.22 1050.71ZM558.138 1001.86C557.449 1002.09 556.536 1002.13 556.106 1002.6C552.54 1006.55 549.748 1011.13 547.878 1016.11C547.704 1016.57 547.688 1017.07 547.834 1017.53C549.614 1022.08 552.001 1026.37 554.93 1030.28C555.11 1030.51 555.68 1030.58 556.054 1030.55C556.936 1030.49 557.843 1030.12 558.683 1030.25C559.7 1030.4 560.214 1030.11 560.756 1029.28C565.378 1022.29 571.417 1016.35 578.48 1011.85C579.449 1011.23 580.367 1010.76 579.822 1009.37C579.748 1009.1 579.767 1008.81 579.874 1008.56C580.199 1007.73 579.794 1007.39 579.092 1007.06C572.449 1004.03 565.496 1002.38 558.138 1001.86ZM600.557 999.941C596.419 995.072 591.524 990.906 586.062 987.604C585.724 987.429 585.341 987.362 584.964 987.412C577.262 988.232 569.912 991.075 563.654 995.654C562.14 996.756 560.727 997.987 559.264 999.159C566.901 999.801 574.36 1001.82 581.282 1005.12C584.379 1002.27 587.7 1002.33 590.606 1005.15C590.77 1005.28 590.959 1005.37 591.161 1005.42C591.363 1005.47 591.573 1005.48 591.777 1005.44C593.589 1005 595.363 1004.39 597.184 1004.01C598.397 1003.75 599.347 1003.5 599.513 1001.99C599.597 1001.31 600.162 1000.69 600.554 999.934L600.557 999.941ZM613.899 1046.48C613.999 1045.86 614.105 1045.37 614.162 1044.86C614.78 1039.3 614.629 1033.68 613.711 1028.16C612.682 1022.03 610.671 1016.11 607.757 1010.62C607.644 1010.47 607.496 1010.35 607.326 1010.27C607.156 1010.19 606.969 1010.15 606.781 1010.15C603.521 1010.69 601.397 1009.71 599.707 1006.9C599.578 1006.75 599.414 1006.63 599.23 1006.55C599.046 1006.48 598.846 1006.45 598.648 1006.46C597.127 1006.77 595.634 1007.22 594.119 1007.56C592.83 1007.85 591.727 1008.23 592.046 1009.93C592.075 1010.25 592.01 1010.56 591.86 1010.84C591.565 1011.47 591.86 1011.78 592.329 1012.18C600.644 1018.86 607.053 1027.62 610.907 1037.59C612.022 1040.44 612.865 1043.4 613.89 1046.48L613.899 1046.48ZM590.703 987.185C590.804 987.364 590.825 987.451 590.881 987.489C595.131 990.471 599 993.966 602.401 997.895C602.615 998.14 603.211 998.222 603.572 998.14C606.751 997.435 609.499 998.752 610.84 1001.76C611.137 1002.42 611.511 1002.54 612.158 1002.59C614.485 1002.76 616.813 1002.94 619.123 1003.26C621.183 1003.54 623.217 1004.01 625.3 1004.4C617.567 993.908 603.673 987.064 590.703 987.185ZM550.574 1055.43C550.74 1055.2 550.808 1055.14 550.818 1055.08C551.496 1050.52 552.646 1046.05 554.251 1041.74C554.279 1041.6 554.277 1041.46 554.244 1041.32C554.21 1041.19 554.147 1041.06 554.058 1040.95C551.648 1038.37 551.518 1035.58 553.122 1032.81C550.784 1028.87 548.511 1025.05 546.17 1021.12C543.29 1033.11 544.648 1044.49 550.574 1055.43ZM632.874 1047.16C628.907 1049.57 624.719 1051.6 620.369 1053.21C620.216 1053.3 620.085 1053.43 619.987 1053.58C619.889 1053.73 619.826 1053.89 619.803 1054.07C619.569 1056.57 618.283 1058.3 616.057 1059.31C615.491 1059.56 615.331 1059.84 615.318 1060.43C615.273 1062.54 615.196 1064.66 615.084 1066.76C614.995 1068.19 614.796 1069.61 614.615 1071.29C623.512 1065.22 629.598 1057.29 632.874 1047.16ZM604.372 1076.37C606.409 1075.45 608.478 1074.48 610.587 1073.59C611.383 1073.26 611.699 1072.72 611.806 1071.93C612.022 1070.31 612.312 1068.69 612.469 1067.06C612.636 1065.34 612.684 1063.63 612.776 1062.07L604.372 1076.37Z" fill="#E2E2E2"/>
<path d="M1160 161.765C1159.85 190.533 1136.44 212.965 1108.61 212.188C1081.93 211.458 1059.64 189.36 1060 161.02C1060.37 132.691 1083.55 110.572 1111.18 111.222C1137.7 111.85 1159.9 133.613 1160 161.765ZM1082.32 160.541C1084.39 162.794 1084.89 165.218 1083.72 167.895C1083.43 168.558 1083.74 168.798 1084.15 169.143C1088.07 172.483 1092.41 175.278 1097.08 177.451C1105.83 181.56 1115.06 183.142 1124.68 182.619C1126.32 182.527 1127.7 182.471 1128.09 180.239C1128.29 179.122 1129.63 178.197 1130.48 177.214C1130.7 176.969 1131.04 176.832 1131.34 176.633C1128.14 162.843 1121.15 151.53 1110.18 142.716C1106.92 144.952 1104.28 144.815 1101.17 142.172C1093.57 146.772 1087.12 153.056 1082.32 160.544V160.541ZM1130.58 188.151C1129.75 187.142 1129.04 186.231 1128.26 185.374C1128.15 185.262 1128.01 185.175 1127.87 185.118C1127.72 185.061 1127.56 185.035 1127.4 185.041C1121.74 185.686 1116.01 185.498 1110.41 184.484C1099.89 182.605 1090.6 178.12 1082.48 171.19C1081.81 170.622 1081.34 170.556 1080.55 170.883C1079.72 171.217 1078.83 171.367 1077.95 171.322C1077.01 171.264 1076.69 171.614 1076.4 172.424C1074.69 177.209 1073.58 182.186 1073.08 187.244C1073.05 187.775 1073.19 188.304 1073.48 188.747C1076.26 192.636 1079.66 196.042 1083.53 198.828C1093.11 205.667 1103.75 208.436 1115.45 207.134C1117.87 206.868 1119.78 206.227 1121.38 204.128C1125.17 199.12 1128.4 193.837 1130.58 188.151ZM1139.22 179.568C1143.96 177.924 1148.35 175.608 1152.52 172.864C1153.81 172.017 1154.51 171.029 1154.61 169.506C1154.68 168.304 1154.94 167.111 1155.05 165.908C1155.98 155.809 1153.76 146.434 1148.56 137.759C1148.36 137.386 1148.05 137.088 1147.66 136.91C1142.61 135.192 1137.32 134.263 1131.98 134.157C1131.74 134.157 1131.36 134.22 1131.26 134.392C1130.74 135.295 1130.26 136.228 1129.83 137.179C1129.74 137.363 1129.88 137.692 1130 137.913C1136.14 149.52 1138.32 161.869 1136.68 174.874C1136.51 176.213 1136.46 177.24 1137.85 177.961C1138.39 178.236 1138.71 178.943 1139.22 179.568ZM1078.14 130.716C1077.45 130.951 1076.54 130.986 1076.1 131.461C1072.54 135.402 1069.75 139.984 1067.88 144.965C1067.7 145.422 1067.69 145.924 1067.83 146.391C1069.61 150.941 1072 155.228 1074.93 159.135C1075.11 159.37 1075.68 159.435 1076.05 159.407C1076.94 159.344 1077.84 158.977 1078.68 159.104C1079.7 159.257 1080.21 158.969 1080.76 158.141C1085.38 151.144 1091.42 145.202 1098.48 140.704C1099.45 140.084 1100.37 139.612 1099.82 138.222C1099.75 137.955 1099.77 137.671 1099.87 137.416C1100.2 136.584 1099.79 136.241 1099.09 135.92C1092.45 132.884 1085.5 131.239 1078.14 130.716ZM1120.56 128.798C1116.42 123.929 1111.52 119.762 1106.06 116.46C1105.72 116.285 1105.34 116.218 1104.96 116.268C1097.26 117.089 1089.91 119.932 1083.65 124.511C1082.14 125.612 1080.73 126.843 1079.26 128.016C1086.9 128.657 1094.36 130.678 1101.28 133.981C1104.38 131.124 1107.7 131.186 1110.61 134.007C1110.77 134.135 1110.96 134.227 1111.16 134.277C1111.36 134.327 1111.57 134.333 1111.78 134.296C1113.59 133.856 1115.36 133.248 1117.18 132.862C1118.4 132.604 1119.35 132.353 1119.51 130.848C1119.6 130.166 1120.16 129.542 1120.55 128.791L1120.56 128.798ZM1133.9 175.339C1134 174.715 1134.1 174.222 1134.16 173.721C1134.78 168.158 1134.63 162.536 1133.71 157.015C1132.68 150.886 1130.67 144.964 1127.76 139.48C1127.64 139.329 1127.5 139.207 1127.33 139.125C1127.16 139.044 1126.97 139.005 1126.78 139.011C1123.52 139.548 1121.4 138.569 1119.71 135.756C1119.58 135.604 1119.41 135.485 1119.23 135.409C1119.04 135.334 1118.85 135.303 1118.65 135.321C1117.13 135.628 1115.63 136.075 1114.12 136.415C1112.83 136.707 1111.73 137.082 1112.04 138.787C1112.07 139.102 1112.01 139.418 1111.86 139.696C1111.56 140.328 1111.86 140.636 1112.33 141.033C1120.64 147.714 1127.05 156.48 1130.91 166.444C1132.02 169.296 1132.86 172.256 1133.89 175.34L1133.9 175.339ZM1110.7 116.042C1110.8 116.22 1110.82 116.307 1110.88 116.345C1115.13 119.328 1119 122.823 1122.4 126.752C1122.61 126.996 1123.21 127.078 1123.57 126.996C1126.75 126.291 1129.5 127.608 1130.84 130.618C1131.14 131.28 1131.51 131.4 1132.16 131.446C1134.48 131.615 1136.81 131.796 1139.12 132.113C1141.18 132.395 1143.22 132.862 1145.3 133.255C1137.57 122.764 1123.67 115.92 1110.7 116.042ZM1070.57 184.287C1070.74 184.052 1070.81 184 1070.82 183.932C1071.5 179.377 1072.65 174.906 1074.25 170.592C1074.28 170.455 1074.28 170.314 1074.24 170.178C1074.21 170.043 1074.15 169.917 1074.06 169.81C1071.65 167.226 1071.52 164.436 1073.12 161.668C1070.78 157.723 1068.51 153.902 1066.17 149.973C1063.29 161.967 1064.65 173.342 1070.57 184.287ZM1152.87 176.017C1148.91 178.429 1144.72 180.456 1140.37 182.07C1140.21 182.161 1140.08 182.285 1139.99 182.433C1139.89 182.582 1139.82 182.75 1139.8 182.927C1139.57 185.427 1138.28 187.154 1136.06 188.162C1135.49 188.417 1135.33 188.698 1135.32 189.285C1135.27 191.399 1135.19 193.512 1135.08 195.614C1134.99 197.042 1134.79 198.463 1134.61 200.142C1143.51 194.075 1149.6 186.145 1152.87 176.017ZM1124.37 205.227C1126.41 204.31 1128.48 203.336 1130.59 202.451C1131.38 202.117 1131.7 201.578 1131.81 200.791C1132.02 199.165 1132.31 197.547 1132.47 195.915C1132.63 194.201 1132.68 192.488 1132.78 190.929L1124.37 205.227Z" fill="#E2E2E2"/>
<path d="M1110.06 498.144L1060 455.176L1110.06 412.208V498.144ZM1160 455.047L1119.87 489.498V468.783L1148.13 444.725L1160 455.047ZM1074.71 455.176L1101.29 477.734V432.337L1074.71 455.176ZM1140.51 438.401L1119.87 455.821V420.725L1140.51 438.401Z" fill="#E2E2E2"/>
<path d="M1111.63 698.294C1106.38 698.857 1102.09 700.123 1097.02 702.631C1092.85 704.717 1089.92 706.757 1086.76 709.781C1079.93 716.297 1075.79 724.173 1074.12 733.691C1073.79 735.66 1073.7 743.583 1074 745.692C1074.19 746.935 1074.26 747.052 1074.8 747.052H1075.39L1075.18 745.458C1075.08 744.591 1074.99 741.942 1075.01 739.551C1075.01 736.035 1075.11 734.698 1075.55 732.542C1078.01 719.977 1086.15 709.312 1097.61 703.569C1111.18 696.771 1127.64 698.201 1139.85 707.249C1142.12 708.937 1145.66 712.312 1147.4 714.445C1154.9 723.681 1158.09 736.105 1155.88 747.568L1155.58 749.162H1156.21C1156.82 749.162 1156.87 749.091 1157.15 747.333C1157.59 744.661 1157.76 740.512 1157.59 737.324C1157.01 727.432 1152.41 717.399 1145.15 710.203C1140.41 705.538 1133.85 701.67 1127.5 699.818C1122.85 698.482 1116.15 697.826 1111.63 698.294Z" fill="#E2E2E2"/>
<path d="M1145.01 750.685C1143.93 751.248 1142.38 752.701 1142.38 753.194C1142.38 753.686 1143.74 753.334 1144.37 752.678C1144.72 752.303 1145.38 751.834 1145.78 751.623C1146.79 751.178 1149.18 751.178 1150.3 751.646C1151.31 752.045 1152.58 753.217 1153.07 754.131C1153.33 754.624 1153.59 754.788 1154.1 754.788H1154.8L1154.36 753.873C1153.66 752.537 1152.77 751.576 1151.57 750.873C1150.66 750.334 1150.16 750.217 1148.36 750.146C1146.44 750.076 1146.13 750.123 1145.01 750.685Z" fill="#E2E2E2"/>
<path d="M1050.02 750.896V751.482L1054.1 751.553L1058.2 751.623L1058.91 752.303C1059.52 752.889 1059.63 753.17 1059.63 754.131C1059.63 755.303 1059.21 756.241 1058.51 756.593C1058.3 756.686 1056.33 756.827 1054.12 756.897L1050.14 757.015L1050.07 760.578L1050 764.164H1050.73H1051.43V761.257V758.374L1054.78 758.257C1058.84 758.14 1059.75 757.788 1060.57 756.077C1061.49 754.178 1060.99 752.209 1059.31 750.943C1058.72 750.498 1058.27 750.451 1054.34 750.381L1050.02 750.31V750.896Z" fill="#E2E2E2"/>
<path d="M1062.68 750.779C1062.68 751.13 1062.94 751.224 1064.49 751.365C1065.47 751.435 1068 751.505 1070.11 751.505H1073.93V750.919V750.333H1068.31C1062.99 750.333 1062.68 750.357 1062.68 750.779Z" fill="#E2E2E2"/>
<path d="M1077.24 754.131C1079.56 758.796 1079.56 758.773 1079.93 757.859C1080.21 757.202 1080.12 756.968 1078.48 753.756C1076.82 750.522 1076.68 750.334 1076.02 750.334H1075.34L1077.24 754.131Z" fill="#E2E2E2"/>
<path d="M1082.72 756.218C1081.06 759.71 1079.68 762.289 1079.35 762.547C1079.02 762.804 1078.41 762.992 1077.89 762.992C1077.07 762.992 1076.98 763.062 1076.98 763.578C1076.98 764.117 1077.05 764.164 1078.11 764.164C1079.86 764.164 1080.47 763.625 1081.79 760.976C1084.2 756.053 1086.83 750.568 1086.83 750.451C1086.83 750.381 1086.52 750.334 1086.17 750.334C1085.56 750.334 1085.4 750.615 1082.72 756.218Z" fill="#E2E2E2"/>
<path d="M1094.12 751.436C1094.37 752.045 1095.92 755.139 1097.56 758.351L1100.54 764.164L1101.48 764.141H1102.41L1105.34 758.233L1108.27 752.326L1108.35 758.233L1108.39 764.164H1108.98H1109.56V757.249V750.334H1108.63H1107.69L1104.59 756.546C1102.88 759.968 1101.43 762.758 1101.36 762.758C1101.29 762.758 1099.84 759.968 1098.12 756.546C1095.12 750.521 1095.01 750.334 1094.33 750.334H1093.65L1094.12 751.436Z" fill="#E2E2E2"/>
<path d="M1113.55 757.249V764.164H1114.13H1114.72V758.679C1114.72 755.678 1114.79 752.561 1114.86 751.764L1115.02 750.334H1114.27H1113.55V757.249Z" fill="#E2E2E2"/>
<path d="M1120.49 754.788C1117.51 758.984 1117.3 759.335 1117.3 760.343V761.421L1120.65 756.757L1123.98 752.092L1124.05 758.116L1124.1 764.164H1124.8H1125.5V757.249V750.334H1124.59H1123.68L1120.49 754.788Z" fill="#E2E2E2"/>
<path d="M1129.49 750.92V751.506H1133.31C1136.66 751.506 1137.2 751.553 1137.86 751.975C1138.79 752.537 1139.19 753.803 1138.84 755.092C1138.44 756.593 1137.9 756.757 1133.36 756.897L1129.37 757.015L1129.3 760.578L1129.23 764.164H1129.96H1130.66V761.257V758.374L1134.01 758.257C1137.01 758.163 1137.46 758.093 1138.37 757.577C1139.64 756.874 1140.27 755.772 1140.27 754.248C1140.27 752.631 1139.54 751.342 1138.32 750.779C1137.48 750.404 1136.75 750.334 1133.43 750.334H1129.49V750.92Z" fill="#E2E2E2"/>
<path d="M1159.26 757.061C1157.64 760.741 1156.3 763.859 1156.26 763.953C1156.21 764.07 1156.49 764.164 1156.87 764.164C1157.62 764.164 1157.27 764.89 1162.19 753.662C1162.61 752.725 1163.03 751.951 1163.13 751.951C1163.22 751.951 1163.66 752.771 1164.11 753.779C1168.8 764.469 1168.66 764.164 1169.38 764.164C1169.76 764.164 1170.04 764.07 1169.99 763.953C1169.97 763.859 1168.61 760.741 1166.99 757.061L1164.06 750.334H1163.13L1162.19 750.357L1159.26 757.061Z" fill="#E2E2E2"/>
<path d="M1067.6 758.655V764.164H1068.31H1069.01V758.655V753.147H1068.31H1067.6V758.655Z" fill="#E2E2E2"/>
<path d="M1145.66 757.249V757.835H1149.62C1151.83 757.835 1153.66 757.905 1153.73 758.022C1153.96 758.398 1152.95 760.718 1152.2 761.492C1150.02 763.742 1146.27 763.859 1144.28 761.726C1143.74 761.164 1142.38 760.859 1142.38 761.304C1142.38 761.796 1143.93 763.25 1145.01 763.789C1145.99 764.281 1146.55 764.398 1148.01 764.398C1149.55 764.398 1150.02 764.305 1151.24 763.672C1153.52 762.547 1154.78 760.671 1154.99 758.14L1155.11 756.663H1150.37H1145.66V757.249Z" fill="#E2E2E2"/>
<path d="M1161.18 760.296L1160.9 760.882H1163.01C1164.18 760.882 1165.12 760.789 1165.12 760.671C1165.12 759.851 1164.81 759.71 1163.15 759.71C1161.56 759.71 1161.42 759.757 1161.18 760.296Z" fill="#E2E2E2"/>
<path d="M1144.73 768.993C1136.31 777.549 1124.14 782.12 1112.56 781.088C1105.7 780.479 1099.18 778.252 1093.81 774.736C1092.66 773.986 1091.98 773.681 1091.98 773.869C1091.98 774.056 1091.91 774.361 1091.84 774.548C1091.58 775.252 1097.68 778.533 1102.13 780.08C1113.43 783.972 1125.9 782.823 1136.31 776.939C1140.06 774.806 1144.4 771.384 1146.69 768.735L1147.8 767.446H1147.02C1146.37 767.446 1145.99 767.704 1144.73 768.993Z" fill="#E2E2E2"/>
<path d="M1160 1032.91C1159.85 1061.68 1136.44 1084.11 1108.61 1083.33C1081.93 1082.6 1059.64 1060.5 1060 1032.16C1060.37 1003.83 1083.55 981.716 1111.18 982.366C1137.7 982.993 1159.9 1004.76 1160 1032.91ZM1082.32 1031.68C1084.39 1033.94 1084.89 1036.36 1083.72 1039.04C1083.43 1039.7 1083.74 1039.94 1084.15 1040.29C1088.07 1043.63 1092.41 1046.42 1097.08 1048.6C1105.83 1052.7 1115.06 1054.29 1124.68 1053.76C1126.32 1053.67 1127.7 1053.61 1128.09 1051.38C1128.29 1050.27 1129.63 1049.34 1130.48 1048.36C1130.7 1048.11 1131.04 1047.98 1131.34 1047.78C1128.14 1033.99 1121.15 1022.67 1110.18 1013.86C1106.92 1016.1 1104.28 1015.96 1101.17 1013.32C1093.57 1017.92 1087.12 1024.2 1082.32 1031.69V1031.68ZM1130.58 1059.29C1129.75 1058.29 1129.04 1057.38 1128.26 1056.52C1128.15 1056.41 1128.01 1056.32 1127.87 1056.26C1127.72 1056.2 1127.56 1056.18 1127.4 1056.18C1121.74 1056.83 1116.01 1056.64 1110.41 1055.63C1099.89 1053.75 1090.6 1049.26 1082.48 1042.33C1081.81 1041.77 1081.34 1041.7 1080.55 1042.03C1079.72 1042.36 1078.83 1042.51 1077.95 1042.47C1077.01 1042.41 1076.69 1042.76 1076.4 1043.57C1074.69 1048.35 1073.58 1053.33 1073.08 1058.39C1073.05 1058.92 1073.19 1059.45 1073.48 1059.89C1076.26 1063.78 1079.66 1067.19 1083.53 1069.97C1093.11 1076.81 1103.75 1079.58 1115.45 1078.28C1117.87 1078.01 1119.78 1077.37 1121.38 1075.27C1125.17 1070.26 1128.4 1064.98 1130.58 1059.29ZM1139.22 1050.71C1143.96 1049.07 1148.35 1046.75 1152.52 1044.01C1153.81 1043.16 1154.51 1042.17 1154.61 1040.65C1154.68 1039.45 1154.94 1038.25 1155.05 1037.05C1155.98 1026.95 1153.76 1017.58 1148.56 1008.9C1148.36 1008.53 1148.05 1008.23 1147.66 1008.05C1142.61 1006.34 1137.32 1005.41 1131.98 1005.3C1131.74 1005.3 1131.36 1005.36 1131.26 1005.54C1130.74 1006.44 1130.26 1007.37 1129.83 1008.32C1129.74 1008.51 1129.88 1008.84 1130 1009.06C1136.14 1020.66 1138.32 1033.01 1136.68 1046.02C1136.51 1047.36 1136.46 1048.38 1137.85 1049.1C1138.39 1049.38 1138.71 1050.09 1139.22 1050.71ZM1078.14 1001.86C1077.45 1002.09 1076.54 1002.13 1076.1 1002.6C1072.54 1006.55 1069.75 1011.13 1067.88 1016.11C1067.7 1016.57 1067.69 1017.07 1067.83 1017.53C1069.61 1022.08 1072 1026.37 1074.93 1030.28C1075.11 1030.51 1075.68 1030.58 1076.05 1030.55C1076.94 1030.49 1077.84 1030.12 1078.68 1030.25C1079.7 1030.4 1080.21 1030.11 1080.76 1029.28C1085.38 1022.29 1091.42 1016.35 1098.48 1011.85C1099.45 1011.23 1100.37 1010.76 1099.82 1009.37C1099.75 1009.1 1099.77 1008.81 1099.87 1008.56C1100.2 1007.73 1099.79 1007.39 1099.09 1007.06C1092.45 1004.03 1085.5 1002.38 1078.14 1001.86ZM1120.56 999.941C1116.42 995.072 1111.52 990.906 1106.06 987.604C1105.72 987.429 1105.34 987.362 1104.96 987.412C1097.26 988.232 1089.91 991.075 1083.65 995.654C1082.14 996.756 1080.73 997.987 1079.26 999.159C1086.9 999.801 1094.36 1001.82 1101.28 1005.12C1104.38 1002.27 1107.7 1002.33 1110.61 1005.15C1110.77 1005.28 1110.96 1005.37 1111.16 1005.42C1111.36 1005.47 1111.57 1005.48 1111.78 1005.44C1113.59 1005 1115.36 1004.39 1117.18 1004.01C1118.4 1003.75 1119.35 1003.5 1119.51 1001.99C1119.6 1001.31 1120.16 1000.69 1120.55 999.934L1120.56 999.941ZM1133.9 1046.48C1134 1045.86 1134.1 1045.37 1134.16 1044.86C1134.78 1039.3 1134.63 1033.68 1133.71 1028.16C1132.68 1022.03 1130.67 1016.11 1127.76 1010.62C1127.64 1010.47 1127.5 1010.35 1127.33 1010.27C1127.16 1010.19 1126.97 1010.15 1126.78 1010.15C1123.52 1010.69 1121.4 1009.71 1119.71 1006.9C1119.58 1006.75 1119.41 1006.63 1119.23 1006.55C1119.04 1006.48 1118.85 1006.45 1118.65 1006.46C1117.13 1006.77 1115.63 1007.22 1114.12 1007.56C1112.83 1007.85 1111.73 1008.23 1112.04 1009.93C1112.07 1010.25 1112.01 1010.56 1111.86 1010.84C1111.56 1011.47 1111.86 1011.78 1112.33 1012.18C1120.64 1018.86 1127.05 1027.62 1130.91 1037.59C1132.02 1040.44 1132.86 1043.4 1133.89 1046.48L1133.9 1046.48ZM1110.7 987.185C1110.8 987.364 1110.82 987.451 1110.88 987.489C1115.13 990.471 1119 993.966 1122.4 997.895C1122.61 998.14 1123.21 998.222 1123.57 998.14C1126.75 997.435 1129.5 998.752 1130.84 1001.76C1131.14 1002.42 1131.51 1002.54 1132.16 1002.59C1134.48 1002.76 1136.81 1002.94 1139.12 1003.26C1141.18 1003.54 1143.22 1004.01 1145.3 1004.4C1137.57 993.908 1123.67 987.064 1110.7 987.185ZM1070.57 1055.43C1070.74 1055.2 1070.81 1055.14 1070.82 1055.08C1071.5 1050.52 1072.65 1046.05 1074.25 1041.74C1074.28 1041.6 1074.28 1041.46 1074.24 1041.32C1074.21 1041.19 1074.15 1041.06 1074.06 1040.95C1071.65 1038.37 1071.52 1035.58 1073.12 1032.81C1070.78 1028.87 1068.51 1025.05 1066.17 1021.12C1063.29 1033.11 1064.65 1044.49 1070.57 1055.43ZM1152.87 1047.16C1148.91 1049.57 1144.72 1051.6 1140.37 1053.21C1140.21 1053.3 1140.08 1053.43 1139.99 1053.58C1139.89 1053.73 1139.82 1053.89 1139.8 1054.07C1139.57 1056.57 1138.28 1058.3 1136.06 1059.31C1135.49 1059.56 1135.33 1059.84 1135.32 1060.43C1135.27 1062.54 1135.19 1064.66 1135.08 1066.76C1134.99 1068.19 1134.79 1069.61 1134.61 1071.29C1143.51 1065.22 1149.6 1057.29 1152.87 1047.16ZM1124.37 1076.37C1126.41 1075.45 1128.48 1074.48 1130.59 1073.59C1131.38 1073.26 1131.7 1072.72 1131.81 1071.93C1132.02 1070.31 1132.31 1068.69 1132.47 1067.06C1132.63 1065.34 1132.68 1063.63 1132.78 1062.07L1124.37 1076.37Z" fill="#E2E2E2"/>
<path d="M338.064 70.1436L288 27.1758L338.064 -15.792V70.1436ZM388 27.0469L347.871 61.498V40.7832L376.129 16.7246L388 27.0469ZM302.71 27.1758L329.29 49.7344V4.33691L302.71 27.1758ZM368.516 10.4014L347.871 27.8213V-7.27539L368.516 10.4014Z" fill="#E2E2E2"/>
<path d="M339.628 270.294C334.377 270.857 330.087 272.123 325.024 274.631C320.851 276.717 317.921 278.757 314.757 281.781C307.935 288.297 303.786 296.173 302.122 305.691C301.794 307.66 301.7 315.583 302.005 317.692C302.192 318.935 302.262 319.052 302.802 319.052H303.388L303.177 317.458C303.083 316.591 302.989 313.942 303.013 311.551C303.013 308.035 303.106 306.698 303.552 304.542C306.013 291.977 314.147 281.312 325.61 275.569C339.182 268.771 355.638 270.201 367.851 279.249C370.125 280.937 373.664 284.312 375.399 286.445C382.9 295.681 386.088 308.105 383.885 319.568L383.58 321.162H384.213C384.822 321.162 384.869 321.091 385.15 319.333C385.596 316.661 385.76 312.512 385.596 309.324C385.01 299.432 380.415 289.399 373.148 282.203C368.413 277.538 361.85 273.67 355.497 271.818C350.856 270.482 344.152 269.826 339.628 270.294Z" fill="#E2E2E2"/>
<path d="M373.007 322.685C371.929 323.248 370.382 324.701 370.382 325.194C370.382 325.686 371.741 325.334 372.374 324.678C372.726 324.303 373.382 323.834 373.781 323.623C374.789 323.178 377.18 323.178 378.305 323.646C379.313 324.045 380.579 325.217 381.071 326.131C381.329 326.624 381.587 326.788 382.102 326.788H382.806L382.36 325.873C381.657 324.537 380.766 323.576 379.571 322.873C378.657 322.334 378.164 322.217 376.359 322.146C374.437 322.076 374.132 322.123 373.007 322.685Z" fill="#E2E2E2"/>
<path d="M278.023 322.896V323.482L282.102 323.553L286.204 323.623L286.908 324.303C287.517 324.889 287.634 325.17 287.634 326.131C287.634 327.303 287.212 328.241 286.509 328.593C286.298 328.686 284.329 328.827 282.126 328.897L278.141 329.015L278.07 332.578L278 336.164H278.727H279.43V333.257V330.374L282.782 330.257C286.837 330.14 287.752 329.788 288.572 328.077C289.486 326.178 288.994 324.209 287.306 322.943C286.72 322.498 286.275 322.451 282.337 322.381L278.023 322.31V322.896Z" fill="#E2E2E2"/>
<path d="M290.683 322.779C290.683 323.13 290.94 323.224 292.488 323.365C293.472 323.435 296.004 323.505 298.113 323.505H301.934V322.919V322.333H296.308C290.987 322.333 290.683 322.357 290.683 322.779Z" fill="#E2E2E2"/>
<path d="M305.239 326.131C307.559 330.796 307.559 330.773 307.934 329.859C308.216 329.202 308.122 328.968 306.481 325.756C304.817 322.522 304.676 322.334 304.02 322.334H303.34L305.239 326.131Z" fill="#E2E2E2"/>
<path d="M310.725 328.218C309.06 331.71 307.677 334.289 307.349 334.547C307.021 334.804 306.411 334.992 305.896 334.992C305.075 334.992 304.981 335.062 304.981 335.578C304.981 336.117 305.052 336.164 306.107 336.164C307.865 336.164 308.474 335.625 309.787 332.976C312.201 328.053 314.827 322.568 314.827 322.451C314.827 322.381 314.522 322.334 314.17 322.334C313.561 322.334 313.397 322.615 310.725 328.218Z" fill="#E2E2E2"/>
<path d="M322.117 323.436C322.375 324.045 323.922 327.139 325.563 330.351L328.54 336.164L329.478 336.141H330.415L333.346 330.233L336.276 324.326L336.346 330.233L336.393 336.164H336.979H337.565V329.249V322.334H336.627H335.69L332.595 328.546C330.884 331.968 329.431 334.758 329.361 334.758C329.29 334.758 327.837 331.968 326.126 328.546C323.125 322.521 323.008 322.334 322.328 322.334H321.648L322.117 323.436Z" fill="#E2E2E2"/>
<path d="M341.549 329.249V336.164H342.135H342.721V330.679C342.721 327.678 342.791 324.561 342.862 323.764L343.026 322.334H342.276H341.549V329.249Z" fill="#E2E2E2"/>
<path d="M348.489 326.788C345.512 330.984 345.301 331.335 345.301 332.343V333.421L348.653 328.757L351.982 324.092L352.052 330.116L352.099 336.164H352.802H353.505V329.249V322.334H352.591H351.677L348.489 326.788Z" fill="#E2E2E2"/>
<path d="M357.488 322.92V323.506H361.309C364.661 323.506 365.2 323.553 365.857 323.975C366.794 324.537 367.193 325.803 366.841 327.092C366.443 328.593 365.904 328.757 361.356 328.897L357.371 329.015L357.301 332.578L357.23 336.164H357.957H358.66V333.257V330.374L362.012 330.257C365.013 330.163 365.458 330.093 366.373 329.577C367.638 328.874 368.271 327.772 368.271 326.248C368.271 324.631 367.545 323.342 366.326 322.779C365.482 322.404 364.755 322.334 361.426 322.334H357.488V322.92Z" fill="#E2E2E2"/>
<path d="M387.259 329.061C385.641 332.741 384.305 335.859 384.258 335.953C384.211 336.07 384.492 336.164 384.868 336.164C385.618 336.164 385.266 336.89 390.189 325.662C390.611 324.725 391.033 323.951 391.126 323.951C391.22 323.951 391.665 324.771 392.111 325.779C396.799 336.469 396.658 336.164 397.385 336.164C397.76 336.164 398.041 336.07 397.995 335.953C397.971 335.859 396.612 332.741 394.994 329.061L392.064 322.334H391.126L390.189 322.357L387.259 329.061Z" fill="#E2E2E2"/>
<path d="M295.604 330.655V336.164H296.307H297.01V330.655V325.147H296.307H295.604V330.655Z" fill="#E2E2E2"/>
<path d="M373.664 329.249V329.835H377.625C379.829 329.835 381.657 329.905 381.727 330.022C381.962 330.398 380.954 332.718 380.204 333.492C378.024 335.742 374.273 335.859 372.281 333.726C371.741 333.164 370.382 332.859 370.382 333.304C370.382 333.796 371.929 335.25 373.007 335.789C373.992 336.281 374.554 336.398 376.008 336.398C377.555 336.398 378.024 336.305 379.243 335.672C381.516 334.547 382.782 332.671 382.993 330.14L383.11 328.663H378.375H373.664V329.249Z" fill="#E2E2E2"/>
<path d="M389.182 332.296L388.9 332.882H391.01C392.182 332.882 393.12 332.789 393.12 332.671C393.12 331.851 392.815 331.71 391.151 331.71C389.557 331.71 389.416 331.757 389.182 332.296Z" fill="#E2E2E2"/>
<path d="M372.726 340.993C364.311 349.549 352.145 354.12 340.565 353.088C333.697 352.479 327.18 350.252 321.812 346.736C320.663 345.986 319.984 345.681 319.984 345.869C319.984 346.056 319.913 346.361 319.843 346.548C319.585 347.252 325.68 350.533 330.134 352.08C341.432 355.972 353.903 354.823 364.311 348.939C368.061 346.806 372.398 343.384 374.695 340.735L375.797 339.446H375.023C374.367 339.446 373.992 339.704 372.726 340.993Z" fill="#E2E2E2"/>
<path d="M388 604.909C387.853 633.677 364.439 656.109 336.612 655.332C309.926 654.601 287.646 632.503 288.004 604.163C288.37 575.835 311.556 553.716 339.182 554.366C365.7 554.993 387.898 576.756 388 604.909ZM310.318 603.685C312.391 605.938 312.893 608.361 311.722 611.039C311.434 611.701 311.744 611.941 312.148 612.286C316.066 615.626 320.415 618.421 325.077 620.595C333.828 624.704 343.061 626.286 352.68 625.762C354.318 625.67 355.703 625.614 356.095 623.383C356.294 622.266 357.628 621.34 358.483 620.358C358.698 620.113 359.042 619.976 359.344 619.776C356.142 605.987 349.151 594.674 338.182 585.859C334.925 588.095 332.28 587.958 329.17 585.316C321.57 589.915 315.121 596.2 310.318 603.687V603.685ZM358.58 631.294C357.749 630.286 357.038 629.375 356.263 628.517C356.15 628.406 356.015 628.319 355.867 628.262C355.719 628.205 355.56 628.178 355.402 628.184C349.74 628.829 344.015 628.642 338.408 627.627C327.894 625.749 318.598 621.263 310.476 614.334C309.807 613.766 309.346 613.7 308.549 614.026C307.724 614.361 306.835 614.511 305.946 614.466C305.011 614.407 304.69 614.757 304.397 615.567C302.691 620.352 301.578 625.33 301.084 630.387C301.047 630.919 301.188 631.448 301.485 631.89C304.262 635.78 307.657 639.185 311.534 641.971C321.112 648.811 331.749 651.579 343.446 650.277C345.866 650.012 347.784 649.37 349.378 647.272C353.175 642.264 356.403 636.98 358.58 631.294ZM367.22 622.711C371.959 621.067 376.348 618.752 380.526 616.008C381.816 615.161 382.509 614.172 382.606 612.65C382.684 611.448 382.937 610.255 383.047 609.052C383.984 598.952 381.757 589.577 376.559 580.903C376.361 580.529 376.047 580.231 375.665 580.053C370.609 578.335 365.319 577.407 359.982 577.301C359.738 577.301 359.357 577.363 359.261 577.536C358.737 578.439 358.26 579.372 357.827 580.323C357.744 580.506 357.883 580.835 358 581.057C364.141 592.664 366.321 605.013 364.678 618.018C364.508 619.356 364.464 620.383 365.848 621.104C366.39 621.38 366.709 622.087 367.22 622.711ZM306.138 573.859C305.449 574.094 304.536 574.13 304.106 574.605C300.54 578.546 297.748 583.127 295.878 588.109C295.704 588.566 295.688 589.068 295.834 589.535C297.614 594.085 300.001 598.372 302.93 602.279C303.11 602.514 303.68 602.578 304.054 602.55C304.936 602.488 305.843 602.121 306.683 602.248C307.7 602.401 308.214 602.112 308.756 601.285C313.378 594.287 319.417 588.346 326.48 583.847C327.449 583.228 328.367 582.756 327.822 581.365C327.748 581.099 327.767 580.815 327.874 580.56C328.199 579.728 327.794 579.385 327.092 579.063C320.449 576.028 313.496 574.383 306.138 573.859ZM348.557 571.941C344.419 567.072 339.524 562.906 334.062 559.604C333.724 559.429 333.341 559.362 332.964 559.412C325.262 560.232 317.912 563.075 311.654 567.654C310.14 568.756 308.727 569.987 307.264 571.159C314.901 571.801 322.36 573.822 329.282 577.125C332.379 574.268 335.7 574.329 338.606 577.15C338.77 577.278 338.959 577.371 339.161 577.42C339.363 577.47 339.573 577.476 339.777 577.439C341.589 577 343.363 576.391 345.184 576.006C346.397 575.748 347.347 575.497 347.513 573.991C347.597 573.31 348.162 572.686 348.554 571.934L348.557 571.941ZM361.899 618.483C361.999 617.858 362.105 617.365 362.162 616.865C362.78 611.302 362.629 605.68 361.711 600.159C360.682 594.03 358.671 588.108 355.757 582.623C355.644 582.472 355.496 582.35 355.326 582.269C355.156 582.187 354.969 582.148 354.781 582.155C351.521 582.692 349.397 581.713 347.707 578.899C347.578 578.747 347.414 578.628 347.23 578.553C347.046 578.477 346.846 578.447 346.648 578.465C345.127 578.772 343.634 579.219 342.119 579.559C340.83 579.85 339.727 580.226 340.046 581.931C340.075 582.245 340.01 582.562 339.86 582.84C339.565 583.471 339.86 583.78 340.329 584.176C348.644 590.857 355.053 599.623 358.907 609.588C360.022 612.439 360.865 615.4 361.89 618.484L361.899 618.483ZM338.703 559.185C338.804 559.364 338.825 559.451 338.881 559.489C343.131 562.471 347 565.966 350.401 569.895C350.615 570.14 351.211 570.222 351.572 570.14C354.751 569.435 357.499 570.752 358.84 573.761C359.137 574.423 359.511 574.543 360.158 574.59C362.485 574.759 364.813 574.94 367.123 575.257C369.183 575.538 371.217 576.006 373.3 576.399C365.567 565.908 351.673 559.064 338.703 559.185ZM298.574 627.43C298.74 627.195 298.808 627.144 298.818 627.075C299.496 622.521 300.646 618.05 302.251 613.735C302.279 613.599 302.277 613.457 302.244 613.322C302.21 613.187 302.147 613.06 302.058 612.953C299.648 610.37 299.518 607.579 301.122 604.812C298.784 600.866 296.511 597.045 294.17 593.117C291.29 605.111 292.648 616.485 298.574 627.43ZM380.874 619.161C376.907 621.572 372.719 623.599 368.369 625.214C368.216 625.304 368.085 625.428 367.987 625.577C367.889 625.725 367.826 625.894 367.803 626.071C367.569 628.571 366.283 630.298 364.057 631.305C363.491 631.561 363.331 631.841 363.318 632.429C363.273 634.542 363.196 636.656 363.084 638.757C362.995 640.185 362.796 641.606 362.615 643.285C371.512 637.219 377.598 629.288 380.874 619.161ZM352.372 648.37C354.409 647.454 356.478 646.48 358.587 645.595C359.383 645.261 359.699 644.721 359.806 643.934C360.022 642.309 360.312 640.691 360.469 639.058C360.636 637.345 360.684 635.631 360.776 634.072L352.372 648.37Z" fill="#E2E2E2"/>
<path d="M338.064 941.287L288 898.319L338.064 855.352V941.287ZM388 898.19L347.871 932.642V911.927L376.129 887.868L388 898.19ZM302.71 898.319L329.29 920.878V875.48L302.71 898.319ZM368.516 881.545L347.871 898.965V863.868L368.516 881.545Z" fill="#E2E2E2"/>
<path d="M858.064 70.1436L808 27.1758L858.064 -15.792V70.1436ZM908 27.0469L867.871 61.498V40.7832L896.129 16.7246L908 27.0469ZM822.71 27.1758L849.29 49.7344V4.33691L822.71 27.1758ZM888.516 10.4014L867.871 27.8213V-7.27539L888.516 10.4014Z" fill="#E2E2E2"/>
<path d="M859.628 270.294C854.377 270.857 850.087 272.123 845.024 274.631C840.851 276.717 837.921 278.757 834.757 281.781C827.935 288.297 823.786 296.173 822.122 305.691C821.794 307.66 821.7 315.583 822.005 317.692C822.192 318.935 822.262 319.052 822.802 319.052H823.388L823.177 317.458C823.083 316.591 822.989 313.942 823.013 311.551C823.013 308.035 823.106 306.698 823.552 304.542C826.013 291.977 834.147 281.312 845.61 275.569C859.182 268.771 875.638 270.201 887.851 279.249C890.125 280.937 893.664 284.312 895.399 286.445C902.9 295.681 906.088 308.105 903.885 319.568L903.58 321.162H904.213C904.822 321.162 904.869 321.091 905.15 319.333C905.596 316.661 905.76 312.512 905.596 309.324C905.01 299.432 900.415 289.399 893.148 282.203C888.413 277.538 881.85 273.67 875.497 271.818C870.856 270.482 864.152 269.826 859.628 270.294Z" fill="#E2E2E2"/>
<path d="M893.007 322.685C891.929 323.248 890.382 324.701 890.382 325.194C890.382 325.686 891.741 325.334 892.374 324.678C892.726 324.303 893.382 323.834 893.781 323.623C894.789 323.178 897.18 323.178 898.305 323.646C899.313 324.045 900.579 325.217 901.071 326.131C901.329 326.624 901.587 326.788 902.102 326.788H902.806L902.36 325.873C901.657 324.537 900.766 323.576 899.571 322.873C898.657 322.334 898.164 322.217 896.359 322.146C894.437 322.076 894.132 322.123 893.007 322.685Z" fill="#E2E2E2"/>
<path d="M798.023 322.896V323.482L802.102 323.553L806.204 323.623L806.908 324.303C807.517 324.889 807.634 325.17 807.634 326.131C807.634 327.303 807.212 328.241 806.509 328.593C806.298 328.686 804.329 328.827 802.126 328.897L798.141 329.015L798.07 332.578L798 336.164H798.727H799.43V333.257V330.374L802.782 330.257C806.837 330.14 807.752 329.788 808.572 328.077C809.486 326.178 808.994 324.209 807.306 322.943C806.72 322.498 806.275 322.451 802.337 322.381L798.023 322.31V322.896Z" fill="#E2E2E2"/>
<path d="M810.683 322.779C810.683 323.13 810.94 323.224 812.488 323.365C813.472 323.435 816.004 323.505 818.113 323.505H821.934V322.919V322.333H816.308C810.987 322.333 810.683 322.357 810.683 322.779Z" fill="#E2E2E2"/>
<path d="M825.239 326.131C827.559 330.796 827.559 330.773 827.934 329.859C828.216 329.202 828.122 328.968 826.481 325.756C824.817 322.522 824.676 322.334 824.02 322.334H823.34L825.239 326.131Z" fill="#E2E2E2"/>
<path d="M830.725 328.218C829.06 331.71 827.677 334.289 827.349 334.547C827.021 334.804 826.411 334.992 825.896 334.992C825.075 334.992 824.981 335.062 824.981 335.578C824.981 336.117 825.052 336.164 826.107 336.164C827.865 336.164 828.474 335.625 829.787 332.976C832.201 328.053 834.827 322.568 834.827 322.451C834.827 322.381 834.522 322.334 834.17 322.334C833.561 322.334 833.397 322.615 830.725 328.218Z" fill="#E2E2E2"/>
<path d="M842.117 323.436C842.375 324.045 843.922 327.139 845.563 330.351L848.54 336.164L849.478 336.141H850.415L853.346 330.233L856.276 324.326L856.346 330.233L856.393 336.164H856.979H857.565V329.249V322.334H856.627H855.69L852.595 328.546C850.884 331.968 849.431 334.758 849.361 334.758C849.29 334.758 847.837 331.968 846.126 328.546C843.125 322.521 843.008 322.334 842.328 322.334H841.648L842.117 323.436Z" fill="#E2E2E2"/>
<path d="M861.549 329.249V336.164H862.135H862.721V330.679C862.721 327.678 862.791 324.561 862.862 323.764L863.026 322.334H862.276H861.549V329.249Z" fill="#E2E2E2"/>
<path d="M868.489 326.788C865.512 330.984 865.301 331.335 865.301 332.343V333.421L868.653 328.757L871.982 324.092L872.052 330.116L872.099 336.164H872.802H873.505V329.249V322.334H872.591H871.677L868.489 326.788Z" fill="#E2E2E2"/>
<path d="M877.488 322.92V323.506H881.309C884.661 323.506 885.2 323.553 885.857 323.975C886.794 324.537 887.193 325.803 886.841 327.092C886.443 328.593 885.904 328.757 881.356 328.897L877.371 329.015L877.301 332.578L877.23 336.164H877.957H878.66V333.257V330.374L882.012 330.257C885.013 330.163 885.458 330.093 886.373 329.577C887.638 328.874 888.271 327.772 888.271 326.248C888.271 324.631 887.545 323.342 886.326 322.779C885.482 322.404 884.755 322.334 881.426 322.334H877.488V322.92Z" fill="#E2E2E2"/>
<path d="M907.259 329.061C905.641 332.741 904.305 335.859 904.258 335.953C904.211 336.07 904.492 336.164 904.868 336.164C905.618 336.164 905.266 336.89 910.189 325.662C910.611 324.725 911.033 323.951 911.126 323.951C911.22 323.951 911.665 324.771 912.111 325.779C916.799 336.469 916.658 336.164 917.385 336.164C917.76 336.164 918.041 336.07 917.995 335.953C917.971 335.859 916.612 332.741 914.994 329.061L912.064 322.334H911.126L910.189 322.357L907.259 329.061Z" fill="#E2E2E2"/>
<path d="M815.604 330.655V336.164H816.307H817.01V330.655V325.147H816.307H815.604V330.655Z" fill="#E2E2E2"/>
<path d="M893.664 329.249V329.835H897.625C899.829 329.835 901.657 329.905 901.727 330.022C901.962 330.398 900.954 332.718 900.204 333.492C898.024 335.742 894.273 335.859 892.281 333.726C891.741 333.164 890.382 332.859 890.382 333.304C890.382 333.796 891.929 335.25 893.007 335.789C893.992 336.281 894.554 336.398 896.008 336.398C897.555 336.398 898.024 336.305 899.243 335.672C901.516 334.547 902.782 332.671 902.993 330.14L903.11 328.663H898.375H893.664V329.249Z" fill="#E2E2E2"/>
<path d="M909.182 332.296L908.9 332.882H911.01C912.182 332.882 913.12 332.789 913.12 332.671C913.12 331.851 912.815 331.71 911.151 331.71C909.557 331.71 909.416 331.757 909.182 332.296Z" fill="#E2E2E2"/>
<path d="M892.726 340.993C884.311 349.549 872.145 354.12 860.565 353.088C853.697 352.479 847.18 350.252 841.812 346.736C840.663 345.986 839.984 345.681 839.984 345.869C839.984 346.056 839.913 346.361 839.843 346.548C839.585 347.252 845.68 350.533 850.134 352.08C861.432 355.972 873.903 354.823 884.311 348.939C888.061 346.806 892.398 343.384 894.695 340.735L895.797 339.446H895.023C894.367 339.446 893.992 339.704 892.726 340.993Z" fill="#E2E2E2"/>
<path d="M908 604.909C907.853 633.677 884.439 656.109 856.612 655.332C829.926 654.601 807.646 632.503 808.004 604.163C808.37 575.835 831.556 553.716 859.182 554.366C885.7 554.993 907.898 576.756 908 604.909ZM830.318 603.685C832.391 605.938 832.893 608.361 831.722 611.039C831.434 611.701 831.744 611.941 832.148 612.286C836.066 615.626 840.415 618.421 845.077 620.595C853.828 624.704 863.061 626.286 872.68 625.762C874.318 625.67 875.703 625.614 876.095 623.383C876.294 622.266 877.628 621.34 878.483 620.358C878.698 620.113 879.042 619.976 879.344 619.776C876.142 605.987 869.151 594.674 858.182 585.859C854.925 588.095 852.28 587.958 849.17 585.316C841.57 589.915 835.121 596.2 830.318 603.687V603.685ZM878.58 631.294C877.749 630.286 877.038 629.375 876.263 628.517C876.15 628.406 876.015 628.319 875.867 628.262C875.719 628.205 875.56 628.178 875.402 628.184C869.74 628.829 864.015 628.642 858.408 627.627C847.894 625.749 838.598 621.263 830.476 614.334C829.807 613.766 829.346 613.7 828.549 614.026C827.724 614.361 826.835 614.511 825.946 614.466C825.011 614.407 824.69 614.757 824.397 615.567C822.691 620.352 821.578 625.33 821.084 630.387C821.047 630.919 821.188 631.448 821.485 631.89C824.262 635.78 827.657 639.185 831.534 641.971C841.112 648.811 851.749 651.579 863.446 650.277C865.866 650.012 867.784 649.37 869.378 647.272C873.175 642.264 876.403 636.98 878.58 631.294ZM887.22 622.711C891.959 621.067 896.348 618.752 900.526 616.008C901.816 615.161 902.509 614.172 902.606 612.65C902.684 611.448 902.937 610.255 903.047 609.052C903.984 598.952 901.757 589.577 896.559 580.903C896.361 580.529 896.047 580.231 895.665 580.053C890.609 578.335 885.319 577.407 879.982 577.301C879.738 577.301 879.357 577.363 879.261 577.536C878.737 578.439 878.26 579.372 877.827 580.323C877.744 580.506 877.883 580.835 878 581.057C884.141 592.664 886.321 605.013 884.678 618.018C884.508 619.356 884.464 620.383 885.848 621.104C886.39 621.38 886.709 622.087 887.22 622.711ZM826.138 573.859C825.449 574.094 824.536 574.13 824.106 574.605C820.54 578.546 817.748 583.127 815.878 588.109C815.704 588.566 815.688 589.068 815.834 589.535C817.614 594.085 820.001 598.372 822.93 602.279C823.11 602.514 823.68 602.578 824.054 602.55C824.936 602.488 825.843 602.121 826.683 602.248C827.7 602.401 828.214 602.112 828.756 601.285C833.378 594.287 839.417 588.346 846.48 583.847C847.449 583.228 848.367 582.756 847.822 581.365C847.748 581.099 847.767 580.815 847.874 580.56C848.199 579.728 847.794 579.385 847.092 579.063C840.449 576.028 833.496 574.383 826.138 573.859ZM868.557 571.941C864.419 567.072 859.524 562.906 854.062 559.604C853.724 559.429 853.341 559.362 852.964 559.412C845.262 560.232 837.912 563.075 831.654 567.654C830.14 568.756 828.727 569.987 827.264 571.159C834.901 571.801 842.36 573.822 849.282 577.125C852.379 574.268 855.7 574.329 858.606 577.15C858.77 577.278 858.959 577.371 859.161 577.42C859.363 577.47 859.573 577.476 859.777 577.439C861.589 577 863.363 576.391 865.184 576.006C866.397 575.748 867.347 575.497 867.513 573.991C867.597 573.31 868.162 572.686 868.554 571.934L868.557 571.941ZM881.899 618.483C881.999 617.858 882.105 617.365 882.162 616.865C882.78 611.302 882.629 605.68 881.711 600.159C880.682 594.03 878.671 588.108 875.757 582.623C875.644 582.472 875.496 582.35 875.326 582.269C875.156 582.187 874.969 582.148 874.781 582.155C871.521 582.692 869.397 581.713 867.707 578.899C867.578 578.747 867.414 578.628 867.23 578.553C867.046 578.477 866.846 578.447 866.648 578.465C865.127 578.772 863.634 579.219 862.119 579.559C860.83 579.85 859.727 580.226 860.046 581.931C860.075 582.245 860.01 582.562 859.86 582.84C859.565 583.471 859.86 583.78 860.329 584.176C868.644 590.857 875.053 599.623 878.907 609.588C880.022 612.439 880.865 615.4 881.89 618.484L881.899 618.483ZM858.703 559.185C858.804 559.364 858.825 559.451 858.881 559.489C863.131 562.471 867 565.966 870.401 569.895C870.615 570.14 871.211 570.222 871.572 570.14C874.751 569.435 877.499 570.752 878.84 573.761C879.137 574.423 879.511 574.543 880.158 574.59C882.485 574.759 884.813 574.94 887.123 575.257C889.183 575.538 891.217 576.006 893.3 576.399C885.567 565.908 871.673 559.064 858.703 559.185ZM818.574 627.43C818.74 627.195 818.808 627.144 818.818 627.075C819.496 622.521 820.646 618.05 822.251 613.735C822.279 613.599 822.277 613.457 822.244 613.322C822.21 613.187 822.147 613.06 822.058 612.953C819.648 610.37 819.518 607.579 821.122 604.812C818.784 600.866 816.511 597.045 814.17 593.117C811.29 605.111 812.648 616.485 818.574 627.43ZM900.874 619.161C896.907 621.572 892.719 623.599 888.369 625.214C888.216 625.304 888.085 625.428 887.987 625.577C887.889 625.725 887.826 625.894 887.803 626.071C887.569 628.571 886.283 630.298 884.057 631.305C883.491 631.561 883.331 631.841 883.318 632.429C883.273 634.542 883.196 636.656 883.084 638.757C882.995 640.185 882.796 641.606 882.615 643.285C891.512 637.219 897.598 629.288 900.874 619.161ZM872.372 648.37C874.409 647.454 876.478 646.48 878.587 645.595C879.383 645.261 879.699 644.721 879.806 643.934C880.022 642.309 880.312 640.691 880.469 639.058C880.636 637.345 880.684 635.631 880.776 634.072L872.372 648.37Z" fill="#E2E2E2"/>
<path d="M858.064 941.287L808 898.319L858.064 855.352V941.287ZM908 898.19L867.871 932.642V911.927L896.129 887.868L908 898.19ZM822.71 898.319L849.29 920.878V875.48L822.71 898.319ZM888.516 881.545L867.871 898.965V863.868L888.516 881.545Z" fill="#E2E2E2"/>
<path d="M1378.06 70.1436L1328 27.1758L1378.06 -15.792V70.1436ZM1428 27.0469L1387.87 61.498V40.7832L1416.13 16.7246L1428 27.0469ZM1342.71 27.1758L1369.29 49.7344V4.33691L1342.71 27.1758ZM1408.51 10.4014L1387.87 27.8213V-7.27539L1408.51 10.4014Z" fill="#E2E2E2"/>
<path d="M1379.63 270.294C1374.38 270.857 1370.09 272.123 1365.02 274.631C1360.85 276.717 1357.92 278.757 1354.76 281.781C1347.93 288.297 1343.79 296.173 1342.12 305.691C1341.79 307.66 1341.7 315.583 1342 317.692C1342.19 318.935 1342.26 319.052 1342.8 319.052H1343.39L1343.18 317.458C1343.08 316.591 1342.99 313.942 1343.01 311.551C1343.01 308.035 1343.11 306.698 1343.55 304.542C1346.01 291.977 1354.15 281.312 1365.61 275.569C1379.18 268.771 1395.64 270.201 1407.85 279.249C1410.12 280.937 1413.66 284.312 1415.4 286.445C1422.9 295.681 1426.09 308.105 1423.88 319.568L1423.58 321.162H1424.21C1424.82 321.162 1424.87 321.091 1425.15 319.333C1425.59 316.661 1425.76 312.512 1425.59 309.324C1425.01 299.432 1420.41 289.399 1413.15 282.203C1408.41 277.538 1401.85 273.67 1395.5 271.818C1390.85 270.482 1384.15 269.826 1379.63 270.294Z" fill="#E2E2E2"/>
<path d="M1413.01 322.685C1411.93 323.248 1410.38 324.701 1410.38 325.194C1410.38 325.686 1411.74 325.334 1412.37 324.678C1412.72 324.303 1413.38 323.834 1413.78 323.623C1414.79 323.178 1417.18 323.178 1418.3 323.646C1419.31 324.045 1420.58 325.217 1421.07 326.131C1421.33 326.624 1421.59 326.788 1422.1 326.788H1422.8L1422.36 325.873C1421.66 324.537 1420.77 323.576 1419.57 322.873C1418.66 322.334 1418.16 322.217 1416.36 322.146C1414.44 322.076 1414.13 322.123 1413.01 322.685Z" fill="#E2E2E2"/>
<path d="M1318.02 322.896V323.482L1322.1 323.553L1326.2 323.623L1326.91 324.303C1327.52 324.889 1327.63 325.17 1327.63 326.131C1327.63 327.303 1327.21 328.241 1326.51 328.593C1326.3 328.686 1324.33 328.827 1322.12 328.897L1318.14 329.015L1318.07 332.578L1318 336.164H1318.73H1319.43V333.257V330.374L1322.78 330.257C1326.84 330.14 1327.75 329.788 1328.57 328.077C1329.49 326.178 1328.99 324.209 1327.31 322.943C1326.72 322.498 1326.27 322.451 1322.34 322.381L1318.02 322.31V322.896Z" fill="#E2E2E2"/>
<path d="M1330.68 322.779C1330.68 323.13 1330.94 323.224 1332.49 323.365C1333.47 323.435 1336 323.505 1338.11 323.505H1341.93V322.919V322.333H1336.31C1330.99 322.333 1330.68 322.357 1330.68 322.779Z" fill="#E2E2E2"/>
<path d="M1345.24 326.131C1347.56 330.796 1347.56 330.773 1347.93 329.859C1348.21 329.202 1348.12 328.968 1346.48 325.756C1344.82 322.522 1344.68 322.334 1344.02 322.334H1343.34L1345.24 326.131Z" fill="#E2E2E2"/>
<path d="M1350.72 328.218C1349.06 331.71 1347.68 334.289 1347.35 334.547C1347.02 334.804 1346.41 334.992 1345.89 334.992C1345.07 334.992 1344.98 335.062 1344.98 335.578C1344.98 336.117 1345.05 336.164 1346.11 336.164C1347.86 336.164 1348.47 335.625 1349.79 332.976C1352.2 328.053 1354.83 322.568 1354.83 322.451C1354.83 322.381 1354.52 322.334 1354.17 322.334C1353.56 322.334 1353.4 322.615 1350.72 328.218Z" fill="#E2E2E2"/>
<path d="M1362.12 323.436C1362.37 324.045 1363.92 327.139 1365.56 330.351L1368.54 336.164L1369.48 336.141H1370.41L1373.34 330.233L1376.27 324.326L1376.35 330.233L1376.39 336.164H1376.98H1377.56V329.249V322.334H1376.63H1375.69L1372.59 328.546C1370.88 331.968 1369.43 334.758 1369.36 334.758C1369.29 334.758 1367.84 331.968 1366.12 328.546C1363.12 322.521 1363.01 322.334 1362.33 322.334H1361.65L1362.12 323.436Z" fill="#E2E2E2"/>
<path d="M1381.55 329.249V336.164H1382.13H1382.72V330.679C1382.72 327.678 1382.79 324.561 1382.86 323.764L1383.02 322.334H1382.27H1381.55V329.249Z" fill="#E2E2E2"/>
<path d="M1388.49 326.788C1385.51 330.984 1385.3 331.335 1385.3 332.343V333.421L1388.65 328.757L1391.98 324.092L1392.05 330.116L1392.1 336.164H1392.8H1393.5V329.249V322.334H1392.59H1391.68L1388.49 326.788Z" fill="#E2E2E2"/>
<path d="M1397.49 322.92V323.506H1401.31C1404.66 323.506 1405.2 323.553 1405.86 323.975C1406.79 324.537 1407.19 325.803 1406.84 327.092C1406.44 328.593 1405.9 328.757 1401.36 328.897L1397.37 329.015L1397.3 332.578L1397.23 336.164H1397.96H1398.66V333.257V330.374L1402.01 330.257C1405.01 330.163 1405.46 330.093 1406.37 329.577C1407.64 328.874 1408.27 327.772 1408.27 326.248C1408.27 324.631 1407.54 323.342 1406.32 322.779C1405.48 322.404 1404.75 322.334 1401.43 322.334H1397.49V322.92Z" fill="#E2E2E2"/>
<path d="M1427.26 329.061C1425.64 332.741 1424.3 335.859 1424.26 335.953C1424.21 336.07 1424.49 336.164 1424.87 336.164C1425.62 336.164 1425.27 336.89 1430.19 325.662C1430.61 324.725 1431.03 323.951 1431.13 323.951C1431.22 323.951 1431.66 324.771 1432.11 325.779C1436.8 336.469 1436.66 336.164 1437.38 336.164C1437.76 336.164 1438.04 336.07 1437.99 335.953C1437.97 335.859 1436.61 332.741 1434.99 329.061L1432.06 322.334H1431.13L1430.19 322.357L1427.26 329.061Z" fill="#E2E2E2"/>
<path d="M1335.6 330.655V336.164H1336.31H1337.01V330.655V325.147H1336.31H1335.6V330.655Z" fill="#E2E2E2"/>
<path d="M1413.66 329.249V329.835H1417.62C1419.83 329.835 1421.66 329.905 1421.73 330.022C1421.96 330.398 1420.95 332.718 1420.2 333.492C1418.02 335.742 1414.27 335.859 1412.28 333.726C1411.74 333.164 1410.38 332.859 1410.38 333.304C1410.38 333.796 1411.93 335.25 1413.01 335.789C1413.99 336.281 1414.55 336.398 1416.01 336.398C1417.55 336.398 1418.02 336.305 1419.24 335.672C1421.52 334.547 1422.78 332.671 1422.99 330.14L1423.11 328.663H1418.37H1413.66V329.249Z" fill="#E2E2E2"/>
<path d="M1429.18 332.296L1428.9 332.882H1431.01C1432.18 332.882 1433.12 332.789 1433.12 332.671C1433.12 331.851 1432.81 331.71 1431.15 331.71C1429.56 331.71 1429.42 331.757 1429.18 332.296Z" fill="#E2E2E2"/>
<path d="M1412.73 340.993C1404.31 349.549 1392.14 354.12 1380.56 353.088C1373.7 352.479 1367.18 350.252 1361.81 346.736C1360.66 345.986 1359.98 345.681 1359.98 345.869C1359.98 346.056 1359.91 346.361 1359.84 346.548C1359.58 347.252 1365.68 350.533 1370.13 352.08C1381.43 355.972 1393.9 354.823 1404.31 348.939C1408.06 346.806 1412.4 343.384 1414.69 340.735L1415.8 339.446H1415.02C1414.37 339.446 1413.99 339.704 1412.73 340.993Z" fill="#E2E2E2"/>
<path d="M1428 604.909C1427.85 633.677 1404.44 656.109 1376.61 655.332C1349.93 654.601 1327.64 632.503 1328 604.163C1328.37 575.835 1351.55 553.716 1379.18 554.366C1405.7 554.993 1427.9 576.756 1428 604.909ZM1350.32 603.685C1352.39 605.938 1352.89 608.361 1351.72 611.039C1351.43 611.701 1351.74 611.941 1352.15 612.286C1356.07 615.626 1360.41 618.421 1365.08 620.595C1373.83 624.704 1383.06 626.286 1392.68 625.762C1394.32 625.67 1395.7 625.614 1396.09 623.383C1396.29 622.266 1397.63 621.34 1398.48 620.358C1398.7 620.113 1399.04 619.976 1399.34 619.776C1396.14 605.987 1389.15 594.674 1378.18 585.859C1374.92 588.095 1372.28 587.958 1369.17 585.316C1361.57 589.915 1355.12 596.2 1350.32 603.687V603.685ZM1398.58 631.294C1397.75 630.286 1397.04 629.375 1396.26 628.517C1396.15 628.406 1396.01 628.319 1395.87 628.262C1395.72 628.205 1395.56 628.178 1395.4 628.184C1389.74 628.829 1384.01 628.642 1378.41 627.627C1367.89 625.749 1358.6 621.263 1350.48 614.334C1349.81 613.766 1349.34 613.7 1348.55 614.026C1347.72 614.361 1346.83 614.511 1345.95 614.466C1345.01 614.407 1344.69 614.757 1344.4 615.567C1342.69 620.352 1341.58 625.33 1341.08 630.387C1341.05 630.919 1341.19 631.448 1341.48 631.89C1344.26 635.78 1347.66 639.185 1351.53 641.971C1361.11 648.811 1371.75 651.579 1383.45 650.277C1385.87 650.012 1387.78 649.37 1389.38 647.272C1393.17 642.264 1396.4 636.98 1398.58 631.294ZM1407.22 622.711C1411.96 621.067 1416.35 618.752 1420.52 616.008C1421.81 615.161 1422.51 614.172 1422.61 612.65C1422.68 611.448 1422.94 610.255 1423.05 609.052C1423.98 598.952 1421.76 589.577 1416.56 580.903C1416.36 580.529 1416.05 580.231 1415.66 580.053C1410.61 578.335 1405.32 577.407 1399.98 577.301C1399.74 577.301 1399.36 577.363 1399.26 577.536C1398.74 578.439 1398.26 579.372 1397.83 580.323C1397.74 580.506 1397.88 580.835 1398 581.057C1404.14 592.664 1406.32 605.013 1404.68 618.018C1404.51 619.356 1404.46 620.383 1405.85 621.104C1406.39 621.38 1406.71 622.087 1407.22 622.711ZM1346.14 573.859C1345.45 574.094 1344.54 574.13 1344.1 574.605C1340.54 578.546 1337.75 583.127 1335.88 588.109C1335.7 588.566 1335.69 589.068 1335.83 589.535C1337.61 594.085 1340 598.372 1342.93 602.279C1343.11 602.514 1343.68 602.578 1344.05 602.55C1344.94 602.488 1345.84 602.121 1346.68 602.248C1347.7 602.401 1348.21 602.112 1348.76 601.285C1353.38 594.287 1359.42 588.346 1366.48 583.847C1367.45 583.228 1368.37 582.756 1367.82 581.365C1367.75 581.099 1367.77 580.815 1367.87 580.56C1368.2 579.728 1367.79 579.385 1367.09 579.063C1360.45 576.028 1353.5 574.383 1346.14 573.859ZM1388.56 571.941C1384.42 567.072 1379.52 562.906 1374.06 559.604C1373.72 559.429 1373.34 559.362 1372.96 559.412C1365.26 560.232 1357.91 563.075 1351.65 567.654C1350.14 568.756 1348.73 569.987 1347.26 571.159C1354.9 571.801 1362.36 573.822 1369.28 577.125C1372.38 574.268 1375.7 574.329 1378.61 577.15C1378.77 577.278 1378.96 577.371 1379.16 577.42C1379.36 577.47 1379.57 577.476 1379.78 577.439C1381.59 577 1383.36 576.391 1385.18 576.006C1386.4 575.748 1387.35 575.497 1387.51 573.991C1387.6 573.31 1388.16 572.686 1388.55 571.934L1388.56 571.941ZM1401.9 618.483C1402 617.858 1402.1 617.365 1402.16 616.865C1402.78 611.302 1402.63 605.68 1401.71 600.159C1400.68 594.03 1398.67 588.108 1395.76 582.623C1395.64 582.472 1395.5 582.35 1395.33 582.269C1395.16 582.187 1394.97 582.148 1394.78 582.155C1391.52 582.692 1389.4 581.713 1387.71 578.899C1387.58 578.747 1387.41 578.628 1387.23 578.553C1387.04 578.477 1386.85 578.447 1386.65 578.465C1385.13 578.772 1383.63 579.219 1382.12 579.559C1380.83 579.85 1379.73 580.226 1380.04 581.931C1380.07 582.245 1380.01 582.562 1379.86 582.84C1379.56 583.471 1379.86 583.78 1380.33 584.176C1388.64 590.857 1395.05 599.623 1398.91 609.588C1400.02 612.439 1400.86 615.4 1401.89 618.484L1401.9 618.483ZM1378.7 559.185C1378.8 559.364 1378.82 559.451 1378.88 559.489C1383.13 562.471 1387 565.966 1390.4 569.895C1390.61 570.14 1391.21 570.222 1391.57 570.14C1394.75 569.435 1397.5 570.752 1398.84 573.761C1399.14 574.423 1399.51 574.543 1400.16 574.59C1402.48 574.759 1404.81 574.94 1407.12 575.257C1409.18 575.538 1411.22 576.006 1413.3 576.399C1405.57 565.908 1391.67 559.064 1378.7 559.185ZM1338.57 627.43C1338.74 627.195 1338.81 627.144 1338.82 627.075C1339.5 622.521 1340.65 618.05 1342.25 613.735C1342.28 613.599 1342.28 613.457 1342.24 613.322C1342.21 613.187 1342.15 613.06 1342.06 612.953C1339.65 610.37 1339.52 607.579 1341.12 604.812C1338.78 600.866 1336.51 597.045 1334.17 593.117C1331.29 605.111 1332.65 616.485 1338.57 627.43ZM1420.87 619.161C1416.91 621.572 1412.72 623.599 1408.37 625.214C1408.21 625.304 1408.08 625.428 1407.99 625.577C1407.89 625.725 1407.82 625.894 1407.8 626.071C1407.57 628.571 1406.28 630.298 1404.06 631.305C1403.49 631.561 1403.33 631.841 1403.32 632.429C1403.27 634.542 1403.19 636.656 1403.08 638.757C1402.99 640.185 1402.79 641.606 1402.61 643.285C1411.51 637.219 1417.6 629.288 1420.87 619.161ZM1392.37 648.37C1394.41 647.454 1396.48 646.48 1398.59 645.595C1399.38 645.261 1399.7 644.721 1399.81 643.934C1400.02 642.309 1400.31 640.691 1400.47 639.058C1400.63 637.345 1400.68 635.631 1400.78 634.072L1392.37 648.37Z" fill="#E2E2E2"/>
<path d="M1378.06 941.287L1328 898.319L1378.06 855.352V941.287ZM1428 898.19L1387.87 932.642V911.927L1416.13 887.868L1428 898.19ZM1342.71 898.319L1369.29 920.878V875.48L1342.71 898.319ZM1408.51 881.545L1387.87 898.965V863.868L1408.51 881.545Z" fill="#E2E2E2"/>
</svg>
